<svg id="msg91_logo" xmlns="http://www.w3.org/2000/svg" width="109.986" height="35.521" viewBox="0 0 109.986 35.521">
  <g id="_216652128" data-name=" 216652128">
    <path id="_216653424" data-name=" 216653424" d="M-6201.109,287.867l39.04-13.641h0a.217.217,0,0,1,.278.135.2.2,0,0,1,.013.073v35.082a.219.219,0,0,1-.219.219l-.028,0-39.048-1.9a.219.219,0,0,1-.208-.219h0V288.082a.218.218,0,0,1,.173-.214Zm109.813,20.77v-17.2h-1.631l-3.56,2,.46,1.423,2.87-1.63v15.409Zm-9.39-8.13c-.483,3.234-2.29,6.21-5.649,6.683l-1.769.115v1.585c4.332.193,7.623-2.443,8.826-6.607,1.119-3.868.721-11.148-4.737-11.145-6.754,0-7.475,11.273-.689,11.275a4.854,4.854,0,0,0,3.95-1.906Zm-3.491-7.9c2.8.015,3.5,3.243,3.491,5.55-.015,3.1-6.829,4.685-6.844-1.083-.006-2.056,1.031-4.45,3.353-4.466Zm-92.668-.983a.787.787,0,0,0-.974.537.787.787,0,0,0,.537.973l14.263,4.128.318-.264,14.2-11.722a.784.784,0,0,0,.106-1.105.784.784,0,0,0-1.105-.108l-13.882,11.459Z" transform="translate(6201.282 -274.213)" fill="#2176b9"/>
    <path id="_216652512" data-name=" 216652512" d="M-6079.62,311.092h-5.42v1.539h3.536v5.6c-1.392.78-4.231.593-5.684.019-4.651-1.839-5.021-9.182-2.009-12.279,2.07-2.129,5.988-2.46,8.588-1.2l.506-1.584a10.839,10.839,0,0,0-7.759-.073c-6.628,2.619-6.656,12.35-2,15.716,2.733,1.976,7.182,1.793,10.238.571v-8.313Zm-15.612-7.9c-2.618-1.677-8.944-1.053-8.933,3.788.009,4.029,4.4,4.527,6.276,5.922,2.73,2.028,1.47,6.771-3.752,5.718a6.78,6.78,0,0,1-2.364-.938l-.528,1.585c2.818,1.986,9.967,1.652,9.967-3.812,0-5.849-7.67-4.364-7.67-8.726,0-3.167,4.422-3.263,6.431-1.954l.573-1.582Zm-12.329-.574h-2.388c-1.427,3.971-3.962,10.514-5.007,14.743h-.068c-1.212-4.767-3.228-10.067-4.846-14.742h-2.342l-1.218,17.5h1.814l.825-15.41h.07c1.157,4.829,3.3,10.6,4.914,15.34h1.4c1.792-5.035,3.774-10.253,5.26-15.34h.067c-.025,3.981.526,11.619.736,15.409h1.882l-1.1-17.5Z" transform="translate(6169.52 -285.693)" fill="#4c4c4e"/>
  </g>
</svg>
