<svg id="simple_culture_image" xmlns="http://www.w3.org/2000/svg" width="293.289" height="274.782" viewBox="0 0 293.289 274.782">
  <path id="Path_12611" data-name="Path 12611" d="M290.457,61.2c-.365,1.879-.765,3.674-1.071,5.484a3.2,3.2,0,0,0,.156,1.667,31.647,31.647,0,0,1,2.172,7.143,29.052,29.052,0,0,0,.635,2.938c.077.289.4.5.57.777a1.779,1.779,0,0,1,.333.792c.033,1.387.062,2.778.006,4.164a24.617,24.617,0,0,1-2.014,9.077,46,46,0,0,1-4.23,7.613,16.85,16.85,0,0,1-1.6,1.988c-1.725,1.821-3.441,3.656-5.246,5.4a50.618,50.618,0,0,1-8.388,6.689,8.46,8.46,0,0,1-1.327.751,2.673,2.673,0,0,0-1.682,2.525c-.156,1.852-.15,3.72-.347,5.566a30.577,30.577,0,0,1-.737,5.853,15.43,15.43,0,0,1-2.22,4.23,6.417,6.417,0,0,0-1.26,4.021c.083,2.391,0,4.788.028,7.181.02,1.852.091,3.7.151,5.556.039,1.15.1,2.3.155,3.448q.152,3.135.312,6.271c.052,1.02.108,2.039.155,3.059.108,2.273.206,4.545.315,6.818.041.838.122,1.674.15,2.512.066,1.93.108,3.86.161,5.789s.108,3.86.155,5.791c.056,2.269.1,4.537.161,6.8q.054,2.038.156,4.074c.089,1.7.214,3.4.306,5.1q.171,3.173.312,6.35c.067,1.564.1,3.132.161,4.7.042,1.1.087,2.2.158,3.291.144,2.222-1.187,2.7-2.717,3.33a2.748,2.748,0,0,1-.868.159c-.771.044-.935.261-.8.993.133.706.237,1.419.314,2.134.22,2.045.432,4.092.625,6.142.126,1.333.194,2.673.322,4.006.191,2,.415,3.992.617,5.988.067.654.112,1.31.158,1.966.108,1.569.2,3.14.317,4.709.144,1.941.286,3.882.475,5.818.1,1.059.314,2.108.453,3.163.061.461-.167.651-.615.873-.979.487-1.83,1.226-2.8,1.727a42.4,42.4,0,0,1-5.736,2.728c-4.528,1.532-9.107,2.924-13.71,4.216-3.141.881-6.352,1.527-9.544,2.216-2.209.476-4.434.885-6.665,1.244a36.828,36.828,0,0,1-3.693.323c-2.194.125-4.389.255-6.584.306a62.5,62.5,0,0,1-6.581-.027,50.673,50.673,0,0,1-6.959-1.093,31.855,31.855,0,0,1-4.765-1.672,18.616,18.616,0,0,1-5.388-2.99,26.662,26.662,0,0,1-2.946-3.021c-.724-.867-.7-.959-1.485-.116-1.491,1.611-2.865,3.34-4.439,4.862a39.687,39.687,0,0,1-20.961,10.627c-1.663.256-3.318.564-4.987.768-1.724.211-3.459.334-5.191.476-.913.075-1.83.122-2.745.156-1.643.064-3.288.147-4.932.148-1.54,0-3.081-.059-4.619-.153-2.019-.122-4.034-.311-6.052-.457-1.569-.116-3.14-.212-4.711-.314-1.648-.106-3.3-.164-4.944-.323a81.446,81.446,0,0,1-10.526-1.515,104.24,104.24,0,0,1-11.737-3.349,34.251,34.251,0,0,1-9.043-4.91c-1.022-.768-1.786-1.9-2.841-2.6-1.824-1.216-1.679-2.8-1.228-4.554.587-2.283,1.147-4.573,1.721-6.861.491-1.955,1.014-3.9,1.472-5.868.428-1.833.79-3.682,1.181-5.524q.655-3.084,1.311-6.17c.393-1.839.8-3.677,1.185-5.519.479-2.3.963-4.6,1.4-6.914.3-1.6.514-3.219.793-4.826.311-1.792.656-3.579.982-5.369.247-1.355.493-2.712.73-4.069.224-1.288.428-2.579.653-3.867.19-1.09.405-2.177.6-3.266.319-1.821.641-3.641.933-5.466.185-1.154.307-2.319.476-3.474.251-1.716.534-3.426.773-5.143.182-1.312.295-2.631.48-3.942.173-1.221.434-2.429.6-3.652a14.906,14.906,0,0,0-.076-6.091,36.889,36.889,0,0,1-.684-4.483c-.148-1-.3-2.006-.469-3.007-.2-1.191-.42-2.378-.621-3.568-.267-1.582-.546-3.163-.775-4.751-.192-1.335-.313-2.681-.478-4.02-.2-1.632-.429-3.261-.618-4.895-.13-1.125-.194-2.257-.322-3.383-.191-1.685-.42-3.366-.616-5.051-.076-.652-.119-1.309-.158-1.965q-.165-2.745-.312-5.491c-.064-1.227-.121-2.454-.155-3.682-.063-2.268-.122-4.536-.151-6.805-.01-.753-.217-1.193-1.06-1.319a22.352,22.352,0,0,1-2.219-.653,2.944,2.944,0,0,0-.842.029c.018.224.021.451.055.673a23.024,23.024,0,0,1,.584,3.956,36.117,36.117,0,0,1-1.681,11.077A42.356,42.356,0,0,1,88.6,143.9a67.462,67.462,0,0,1-8.147,9.184,2.478,2.478,0,0,0-.617,2.164c.081.948.23,1.889.3,2.839.082,1.121.075,2.248.171,3.369.181,2.1.418,4.2.613,6.3.122,1.308.215,2.62.314,3.93.059.785.117,1.571.148,2.356a1.35,1.35,0,0,1-.176.47c-.129-.1-.314-.167-.375-.3a3.973,3.973,0,0,1-.366-1.016q-.346-2.012-.628-4.033c-.131-.943-.213-1.891-.318-2.837-.208-1.891-.461-3.78-.61-5.675-.121-1.535-.1-3.079-.185-4.617a1.123,1.123,0,0,0-.355-.764c-.127-.1-.534.023-.712.171-1.675,1.379-3.327,2.784-4.985,4.185-.691.582-1.4,1.148-2.056,1.771-.178.17-.343.614-.248.77.762,1.244.7,2.687,1.01,4.033.4,1.75.656,3.535.948,5.309.233,1.418.4,2.846.64,4.266.3,1.821.631,3.638.968,5.452.286,1.544.6,3.082.9,4.623.417,2.144.85,4.284,1.244,6.431.289,1.579.515,3.168.789,4.75.353,2.038.742,4.067,1.086,6.106.333,1.975.607,3.96.947,5.933.446,2.595.952,5.179,1.392,7.774.253,1.493.4,3,.638,4.5s.529,3.009.771,4.518c.228,1.419.4,2.848.634,4.267.213,1.312.465,2.615.706,3.922q.42,2.283.851,4.565c.34,1.811.687,3.619,1.023,5.43.238,1.282.472,2.565.692,3.852.32,1.872.67,3.743.926,5.624.22,1.618.351,3.249.471,4.879.059.8-.412,1.188-1.149.92a1.8,1.8,0,0,0-2.094.518,31.051,31.051,0,0,1-6.853,5.118,35.113,35.113,0,0,1-8.25,3.254,46.271,46.271,0,0,1-5.384.948c-2.039.272-4.089.511-6.142.618-2.576.136-5.161.194-7.74.153a40.692,40.692,0,0,1-5.035-.457A69.864,69.864,0,0,1,32.424,267c-2.139-.7-4.321-1.268-6.5-1.838-2-.525-4.032-.938-6.031-1.466a13.905,13.905,0,0,1-5.387-2.454c-.156-.127-.415-.119-.619-.192a1.188,1.188,0,0,1-.784-1.593c.172-.8.27-1.614.367-2.426.271-2.258.509-4.522.789-6.779.238-1.924.536-3.841.771-5.766q.423-3.466.78-6.937c.136-1.307.245-2.618.311-3.93.127-2.506.206-5.015.322-7.521.09-1.961.21-3.921.308-5.882q.164-3.293.312-6.584c.06-1.332.117-2.664.155-4,.062-2.137.088-4.277.164-6.414.082-2.326.258-4.65.3-6.976.087-5.26.15-10.52.15-15.782,0-2.117-.185-4.233-.3-6.35a1.036,1.036,0,0,0-.25-.515c-1.366-1.753-2.831-3.437-4.089-5.262a75.213,75.213,0,0,1-4.513-7.185,35.789,35.789,0,0,1-3.462-9.02c-.47-2.105-.865-4.229-1.247-6.352a14.826,14.826,0,0,1-.164-2.2c-.065-2.294-.048-4.592-.184-6.882a34.723,34.723,0,0,0-.607-3.957c-.235-1.328-.492-2.653-.78-3.97-.448-2.048-.8-4.133-1.437-6.121a15.605,15.605,0,0,1-.7-6.553c.224-2.038.526-4.173,1.856-5.843s1.621-3.763,2.453-5.63c1.027-2.3,1.925-4.667,2.864-7.01.251-.625.468-1.266.662-1.911a6.415,6.415,0,0,1,1.952-2.85,11.752,11.752,0,0,1,3.9-2.817,21.64,21.64,0,0,1,2.9-.725,11.289,11.289,0,0,1,5.888.727c.384.131.631-.009.579-.418a3.728,3.728,0,0,0-.314-1.27,32.239,32.239,0,0,1-3.314-8.7c-.147-.721-.319-1.441-.412-2.169a31.076,31.076,0,0,1-.436-4.332,18,18,0,0,1,.6-3.953c.556-2.282,1.129-4.57,1.889-6.789a34.173,34.173,0,0,1,2.117-4.506c.3-.575.128-.962-.328-1.176-.818-.383-.924-1.11-1.033-1.835-.141-.94-.249-1.888-.315-2.836-.174-2.484-.4-4.969-.448-7.457a7.651,7.651,0,0,1,2.2-5.406A1.816,1.816,0,0,0,23.9,38.04a1.979,1.979,0,0,1,1.381-2.15c1.191-.517,2.41-.978,3.568-1.561,1.06-.534,2.06-1.191,3.077-1.808a32.932,32.932,0,0,1,5.44-2.7c1.1-.416,2.209-.825,3.322-1.216,1.925-.677,3.113.179,3.542,2.206.021.1-.025.217.007.31.15.432.316.858.476,1.286a8.736,8.736,0,0,0,1.072-.482,33.917,33.917,0,0,1,7.942-4.005,25.037,25.037,0,0,1,3.673-.739,22.758,22.758,0,0,1,2.977-.166,5.386,5.386,0,0,1,5.255,3.837,4.3,4.3,0,0,1,.143.955c.067.786.535,1.074,1.214.656a12.14,12.14,0,0,1,4.962-1.424,19.225,19.225,0,0,1,9.727,1.495q2.582,1.019,5.113,2.165c.351.158.587.568.884.853.383.368.658.878,1.385.529.82-.394,1.71-.644,2.57-.955a2.794,2.794,0,0,0,1.474-3.146,9.992,9.992,0,0,1-.3-1.744c-.08-3-.236-6-.131-8.989a19.313,19.313,0,0,1,6.7-13.676,30.845,30.845,0,0,1,6.567-4.681A21.121,21.121,0,0,1,112.751.335a27.437,27.437,0,0,1,5.485-.289c2.374.179,3.2,1.331,3.238,3.594a37.92,37.92,0,0,1-.574,4.894c-.085.729-.122,1.465-.151,2.2-.006.153.118.311.183.466.144-.121.368-.215.42-.367A10.8,10.8,0,0,1,124.529,6.3c.775-.7,1.661-1.272,2.468-1.937a8.575,8.575,0,0,0,.771-.888,3.09,3.09,0,0,1,.572-.528A15.263,15.263,0,0,1,133.1,1.258a25.8,25.8,0,0,1,7.65-.952,10.125,10.125,0,0,1,5.509,1.761,3.045,3.045,0,0,1,1.3,2.474c-.02,1.248-.241,2.492-.369,3.739-.025.243-.022.49-.032.735a6.8,6.8,0,0,0,.642-.258,20.89,20.89,0,0,1,5.458-1.912,33.332,33.332,0,0,1,8.643-.562,13.6,13.6,0,0,1,3.821.924A20.062,20.062,0,0,1,169.7,9.087a4.868,4.868,0,0,1,2.592,3.918c.017.371.226.829.988.616a18.728,18.728,0,0,1,6.909-.637,10.465,10.465,0,0,1,4.86,1.65,14.625,14.625,0,0,1,4.8,4.31,17.567,17.567,0,0,1,2.439,5.943,29.38,29.38,0,0,0,1.66,5.549,12.352,12.352,0,0,0,1.941,2.63,20.436,20.436,0,0,1,3.836,7.62,16.437,16.437,0,0,1,.323,2.677c.173,2.3.337,4.605.459,6.91a10.213,10.213,0,0,1-.2,1.547,4.26,4.26,0,0,0,.033.689,3.433,3.433,0,0,0,.587-.073c2.5-.75,5.379-.253,6.773,2.426a12.508,12.508,0,0,0,.79,1.186,8.589,8.589,0,0,0,.784-1.195c.851-1.91,1.625-3.856,2.5-5.755a10.515,10.515,0,0,1,5.412-5.193,9.851,9.851,0,0,1,5.373-.931,20.329,20.329,0,0,1,4.38,1.087c.756.26,1.068-.1,1.184-.578.439-1.793,1.8-2.577,3.316-3.2a13.472,13.472,0,0,1,6.631-.918,20.516,20.516,0,0,1,9.49,3.086c.24.162.76.337.826.252a1.951,1.951,0,0,0,.368-1c.055-.629-.011-1.267.02-1.9.1-2.013,1.532-2.815,3.173-3.1,3.271-.576,6.272.488,9.229,1.7a17.7,17.7,0,0,1,2.175.961,5.411,5.411,0,0,1,1.1,1.073,6.661,6.661,0,0,0,.673.806,10.459,10.459,0,0,1,3.472,4.878.8.8,0,0,0,.156.247c.231.262.47.518.707.776a3.063,3.063,0,0,0,.367-.934c.041-1.335-.009-2.672.028-4.007a7.372,7.372,0,0,1,.255-2.078,2.359,2.359,0,0,1,2.895-1.546,37.181,37.181,0,0,1,4.292.939,16,16,0,0,1,5.969,3.49,26.478,26.478,0,0,1,2.611,2.336,25.21,25.21,0,0,1,3.271,4.264,18.023,18.023,0,0,1,1.436,4.467,11.43,11.43,0,0,1,.311,3.064c-.044,1.332-.284,2.657-.44,4.064M179.445,174.009c-.053-1.525-.092-3.054-.159-4.579q-.138-3.136-.312-6.272c-.091-1.649-.217-3.3-.306-4.945-.117-2.142-.226-4.285-.311-6.428-.073-1.851-.112-3.7-.161-5.556-.055-2.112-.114-4.224-.155-6.337-.061-3.283-.148-6.566-.147-9.849,0-3.491.084-6.983.15-10.474.025-1.358.094-2.715.153-4.073.041-.936.064-1.846-.848-2.472a.871.871,0,0,1-.233-.665.948.948,0,0,0-.7-1.034c-.386-.14-.774-.273-1.171-.377-3.337-.869-6.678-1.715-10.01-2.6a32.831,32.831,0,0,1-3.522-1.106.927.927,0,0,1-.329-1.647,2.278,2.278,0,0,1,.942-.351c.968-.136,1.944-.208,2.912-.334.167-.022.315-.184.472-.282a1.976,1.976,0,0,0-.511-.319,4.44,4.44,0,0,0-.7-.016c-2.464-.2-4.928-.415-7.391-.62-.233-.019-.467-.014-.7-.011q-3.471.045-6.943.1c-.719.011-1.439.024-2.156.075-2.018.144-4.033.331-6.053.437-.271.014-.561-.344-.842-.529.292-.231.565-.628.88-.665,1.828-.212,3.665-.363,5.5-.489,1.932-.133,3.868-.272,5.8-.3,1.773-.027,3.55.035,5.321.152q3.506.233,7,.623c1.824.2,3.643.473,5.451.791.529.093,1.3.228,1.221.992a1.317,1.317,0,0,1-.92.826c-1.855.279-3.725.446-5.59.664a1.83,1.83,0,0,0-.468.2c.139.141.256.367.422.408,1.535.387,3.081.727,4.617,1.11,2.025.505,4.055,1,6.064,1.568,1.653.465,1.646.509,2.547-1.093,1.2-2.131,2.355-4.288,3.6-6.392,1.315-2.222,2.726-4.386,4.07-6.591,1.56-2.56,3.412-4.907,4.262-7.922a50.405,50.405,0,0,0,1.742-11.136c.037-.708.058-1.421.162-2.12.289-1.93.57-3.863.941-5.778a50.194,50.194,0,0,1,1.5-6.717A70.477,70.477,0,0,0,196.3,54.09c.445-2.009.842-4.029,1.216-6.053a7.665,7.665,0,0,0,.3-2.811,17.011,17.011,0,0,0-1.435-3.687c-1.076-2.263-2.2-4.5-3.355-6.728-.867-1.671-1.276-3.511-2.54-5.059a21.308,21.308,0,0,1-4.014-8.856,6.874,6.874,0,0,0-2.145-3.84A9.953,9.953,0,0,0,177.4,15.2a20.417,20.417,0,0,0-4.462,1.057,1.2,1.2,0,0,0-.776.659,8.575,8.575,0,0,1-2.362,3.861c-1.343,1.5-2.776,2.921-4.184,4.361a10.651,10.651,0,0,0-2.689,4.659c-.712,2.614-1.232,5.283-1.738,7.947-.392,2.067-.576,4.174-.97,6.241-.447,2.348-1.034,4.67-1.533,7.009a2.262,2.262,0,0,0,.014,1.082,17.964,17.964,0,0,0,2.473,5.532,4.6,4.6,0,0,0,3.39,1.872c1.763.2,3.16-.732,4.581-1.558a13.653,13.653,0,0,0,6.475-8.149c.607-2.053,1.035-4.162,1.468-6.262.372-1.81.678-3.636.937-5.466s.411-3.679.643-5.515c.122-.957.77-1.729,1.393-1.773.687-.048,1.319.468,1.546,1.529a24.013,24.013,0,0,1,.468,3.628,18.233,18.233,0,0,1-.145,2.9c-.106,1.035-.3,2.061-.439,3.092-.062.469.092.633.612.49a19.8,19.8,0,0,1,6.512-.86,2.263,2.263,0,0,1,.773.2c.137.062.219.245.325.374a1.821,1.821,0,0,1-.464.194,33.422,33.422,0,0,0-7.19,1.682,2.022,2.022,0,0,0-1.351,2.123.494.494,0,0,0,.417.245,15.633,15.633,0,0,1,2.539-.812c1.56-.184,3.173-.414,4.622.522a2.185,2.185,0,0,1,.368.392,2.2,2.2,0,0,1-.429.257,1.844,1.844,0,0,1-.651.118,12.618,12.618,0,0,0-1.5-.135,16.4,16.4,0,0,0-5.327,1.261,2.588,2.588,0,0,0-1.132,1.066c-.788,1.408-1.374,2.94-2.247,4.29a19.642,19.642,0,0,1-4.15,4.681,14.488,14.488,0,0,1-5.541,3.224.763.763,0,0,0-.579,1.156,16.239,16.239,0,0,0,2.573,4.332,29.024,29.024,0,0,0,5.185,4.982c1.483,1.067,2.971,2.13,4.447,3.208a2.439,2.439,0,0,1,.395.491,2.671,2.671,0,0,1-.628.173,5.921,5.921,0,0,1-3.057-1.09,20.427,20.427,0,0,1-5.129-3.636c-1.045-1.122-2.061-2.269-3.095-3.4a13.018,13.018,0,0,1-2.389-4.163c-.372-.945-.512-2.049-1.958-1.758-.016,0-.036-.04-.058-.045-2.913-.768-4.23-3.067-5.337-5.567-.094-.211-.192-.42-.289-.63a2.519,2.519,0,0,0-.515.585,9.276,9.276,0,0,1-2.615,3.515,1.5,1.5,0,0,0-.4,1.986,15.133,15.133,0,0,1,.99,5.2,17.822,17.822,0,0,1-.139,2.744,14.421,14.421,0,0,1-.987,4.508c-.084.2-.31.34-.47.508a1.98,1.98,0,0,1-.244-.661c.025-1.15.113-2.3.137-3.449a31.914,31.914,0,0,0-.018-3.693,36.588,36.588,0,0,0-.709-4.23c-.185-.858-.632-1.047-1.361-.6a5.992,5.992,0,0,1-3.12.74,13.156,13.156,0,0,1-5.6-1.149,11.418,11.418,0,0,1-5.915-5.506c-.443-.9-.711-1.89-1.071-2.834-.166-.435-.322-.81-.964-.545-1.288.534-2.608.991-3.918,1.473-3.116,1.147-6.3,2.146-9.331,3.479-2.734,1.2-5.322,2.743-7.945,4.187-.836.46-1.568,1.107-2.373,1.631-.406.264-.842.432-1.279-.041-.469-.508-.129-.951.144-1.28a24.134,24.134,0,0,1,4.632-4.394,43.7,43.7,0,0,1,9.038-4.761,31.8,31.8,0,0,1,6.7-2.1c.108-.017.2-.138.3-.21-.085-.09-.154-.228-.257-.263a7.45,7.45,0,0,0-1.322-.385c-1.8-.257-3.56-.875-5.428-.546-2.5.441-5.022.8-7.52,1.265a70.731,70.731,0,0,0-10.812,2.915c-.886.317-1.8.574-2.706.813a.788.788,0,0,1-.973-.646.817.817,0,0,1,.53-1.094c1.182-.473,2.322-1.053,3.482-1.582a51.074,51.074,0,0,1,11.869-3.387,4.888,4.888,0,0,0,.618-.2,3.43,3.43,0,0,0-.543-.436,23.043,23.043,0,0,1-6.844-5.143,7.9,7.9,0,0,1-2.242-5.85,3.974,3.974,0,0,1,.558-1.786c.537-.862,1.7-.609,2.384.471a14.688,14.688,0,0,0,3.65,4.165c1.608,1.171,3.222,2.35,4.934,3.356a10.866,10.866,0,0,0,8.139,1.647,25.556,25.556,0,0,0,7.848-3.266A17.859,17.859,0,0,0,141.7,35.5a5.388,5.388,0,0,0,1.3-3.258,10.608,10.608,0,0,0-1.213-3.688,5.989,5.989,0,0,0-3.743-3.2,34.1,34.1,0,0,0-3.369-.724c-1.849-.326-3.706-.608-5.56-.9-.929-.148-1.861-.28-2.789-.43-1.34-.216-2.676-.459-4.019-.66-1.207-.18-2.419-.321-3.63-.473-1.683-.211-3.362-.479-5.051-.6a22.918,22.918,0,0,0-3.056.135,10.9,10.9,0,0,0-4.6,1.318,21.621,21.621,0,0,0-3.794,2.7,29.141,29.141,0,0,0-3.578,3.729,49.07,49.07,0,0,0-3.371,4.921,37.584,37.584,0,0,0-2.71,5.041c-1.029,2.461-1.816,5.024-2.72,7.538a12.184,12.184,0,0,0-.719,6.5c.431,2.212,1.034,4.4,1.681,6.559A69.534,69.534,0,0,0,95.97,72.443a88.551,88.551,0,0,0,4.9,8.047,75.6,75.6,0,0,0,8.5,10.121,88.11,88.11,0,0,0,6.6,6.118,20.533,20.533,0,0,0,3.569,2.094c.931.506,1.912.919,2.837,1.434.23.128.331.49.491.744-.267.109-.552.34-.8.3a26.885,26.885,0,0,1-2.737-.544c-.765-.192-1.079-.1-1.263.686-.17.724-.192,1.483-.292,2.224-.2,1.5-.44,3-.615,4.5-.143,1.227-.2,2.464-.323,3.695-.2,2-.433,3.989-.615,5.987-.138,1.515-.212,3.036-.32,4.554-.045.629-.082,1.26-.159,1.886-.2,1.607-.43,3.209-.616,4.817-.179,1.546-.287,3.1-.481,4.644-.226,1.8-.525,3.583-.769,5.377-.225,1.655-.388,3.319-.637,4.97-.275,1.828-.639,3.642-.922,5.469-.289,1.865-.489,3.745-.8,5.607-.376,2.28-.844,4.546-1.233,6.824-.342,2-.61,4.011-.948,6.011-.394,2.33-.836,4.65-1.24,6.978-.233,1.34-.421,2.687-.648,4.027-.3,1.749-.62,3.493-.914,5.241-.189,1.123-.329,2.253-.523,3.376-.28,1.624-.6,3.24-.883,4.864-.234,1.337-.421,2.684-.664,4.02-.28,1.544-.607,3.079-.9,4.622q-.473,2.5-.915,5.007-.418,2.368-.8,4.742c-.22,1.343-.389,2.693-.642,4.03-.438,2.311-.934,4.609-1.386,6.917-.33,1.689-.605,3.388-.946,5.076-.445,2.2-.945,4.4-1.4,6.6-.393,1.924-.711,3.863-1.132,5.779-.523,2.378-1.108,4.742-1.685,7.107-.75,3.07-1.52,6.136-2.277,9.2a.767.767,0,0,0,.341.988,23.727,23.727,0,0,1,2.377,2.166c.915.865,1.767,1.806,2.746,2.589a19.423,19.423,0,0,0,5.411,2.753c3.577,1.354,7.145,2.732,10.747,4.019a51.351,51.351,0,0,0,9.678,2.454c2.819.425,5.63.931,8.463,1.223,2.388.245,4.8.308,7.206.323,3.075.02,6.151-.062,9.225-.15a35.154,35.154,0,0,0,3.928-.315c2.173-.311,4.351-.628,6.492-1.1a45.652,45.652,0,0,0,10.161-3.54c2.582-1.255,5.087-2.671,7.63-4.011a21.665,21.665,0,0,0,7.749-6.473,2.935,2.935,0,0,0,.581-2.929,62.666,62.666,0,0,1-1.6-6.989c-.489-2.6-.915-5.213-1.243-7.836-.223-1.789-.248-3.605-.329-5.41-.076-1.694-.172-3.393-.144-5.087.031-1.936.322-3.874.262-5.8-.078-2.572-.376-5.137-.595-7.7-.142-1.68-.328-3.357-.461-5.037-.175-2.223-.317-4.45-.473-6.675-.1-1.493-.23-2.984-.308-4.478-.122-2.323-.22-4.648-.315-6.973-.064-1.618-.1-3.237-.158-4.854-.052-1.566-.117-3.131-.153-4.7-.062-2.632-.108-5.265-.159-8.055m45.982-98.442c-.511-.416-1-.867-1.536-1.243a13.726,13.726,0,0,0-6.667-2.161c-2.94-.287-5.907-.307-8.856-.518a25.928,25.928,0,0,1-3.507-.573,26.073,26.073,0,0,0-6.778-.966c-.573.03-1.215.062-1.516.629a3.5,3.5,0,0,0-.253,1.3c-.122,1.387-.161,2.782-.331,4.162-.265,2.14-.518,4.29-.954,6.4a14.5,14.5,0,0,1-1.828,4.782,17.527,17.527,0,0,0-2,3.769,29.673,29.673,0,0,1-4.155,7.961c-1.488,2.128-3.074,4.186-4.553,6.319a2.955,2.955,0,0,0-.626,1.792,21.124,21.124,0,0,0,2.4,7.113c.684,1.335,1.433,2.64,2.2,3.927a36.35,36.35,0,0,0,5.245,7.116c1.44,1.446,2.892,2.885,4.415,4.238a11.885,11.885,0,0,0,2.843,1.979c2.447,1.117,5.129,1.461,7.729,2.076a7.6,7.6,0,0,1,2.979,1.04,39.4,39.4,0,0,0,3.707,2.4c1.416.9,2.737,1.954,4.081,2.965.165.123.223.388.331.587-.248.024-.536.142-.739.058-1.825-.748-3.632-1.538-5.449-2.3a9.2,9.2,0,0,0-2.223-.826,19.771,19.771,0,0,0-3.3-.021c-.362.014-.952-.318-1.027.418s-.086,1.468-.165,2.2c-.142,1.289-.286,2.579-.484,3.859-.22,1.409-.526,2.8-.754,4.212-.236,1.445-.42,2.9-.632,4.346-.258,1.766-.534,3.53-.774,5.3-.181,1.337-.294,2.684-.479,4.02-.236,1.691-.526,3.374-.771,5.063-.225,1.552-.406,3.109-.632,4.659-.187,1.3-.426,2.584-.615,3.88-.13.89-.19,1.791-.323,2.679-.186,1.244-.428,2.481-.614,3.724-.18,1.207-.3,2.423-.478,3.63-.19,1.322-.429,2.637-.614,3.958-.136.968-.19,1.947-.325,2.913-.184,1.322-.425,2.637-.615,3.96-.176,1.232-.312,2.472-.481,3.705-.2,1.426-.425,2.846-.61,4.273-.133,1.018-.2,2.047-.331,3.066-.186,1.426-.423,2.846-.6,4.273-.134,1.046-.2,2.1-.322,3.148-.2,1.66-.418,3.315-.62,4.973-.119.97-.2,1.942-.331,2.91-.184,1.349-.422,2.69-.6,4.041s-.309,2.681-.475,4.02c-.2,1.607-.423,3.21-.62,4.817-.122.995-.19,2-.32,2.992-.189,1.452-.423,2.9-.617,4.348-.125.943-.2,1.892-.317,2.837-.2,1.658-.423,3.313-.62,4.971-.076.653-.1,1.31-.161,1.966a2.024,2.024,0,0,0,1.052,2.294c.717.358,1.358.86,2.059,1.251a49.831,49.831,0,0,0,5.618,3.02c2.75,1.095,5.615,1.913,8.455,2.765,1.607.482,3.254.846,4.9,1.169,1.435.281,2.9.4,4.344.648a25.748,25.748,0,0,0,6.861.459c2.23-.206,4.464-.376,6.687-.637,1.669-.2,3.329-.481,4.985-.773a75.91,75.91,0,0,0,11.028-2.963c4-1.344,8.032-2.59,11.961-4.106a36.018,36.018,0,0,0,5.448-3.043c.486-.294,1.038-.718.5-1.514a3.547,3.547,0,0,1-.35-1.408c-.273-1.738-.56-3.474-.776-5.22-.248-1.991-.436-3.989-.629-5.986-.08-.809-.084-1.624-.165-2.433-.194-1.919-.42-3.835-.617-5.754-.12-1.152-.187-2.309-.322-3.46-.24-2.08-.526-4.155-.771-6.236-.175-1.494-.328-2.992-.468-4.489-.22-2.333-.412-4.668-.631-7-.142-1.524-.308-3.046-.467-4.568-.258-2.468-.526-4.935-.778-7.405-.167-1.652-.331-3.3-.465-4.959q-.262-3.218-.47-6.441c-.122-1.881-.206-3.766-.317-5.647-.1-1.622-.219-3.244-.308-4.867-.117-2.091-.234-4.181-.309-6.272-.08-2.191-.159-4.381-.151-6.572.014-4.011.094-8.023.145-12.035,0-.286-.02-.574,0-.858a1.95,1.95,0,0,0-.7-1.662c-1.09-1-2.191-1.992-3.291-2.983a11.341,11.341,0,0,0-6.317-2.664c-.275-.037-.52-.294-.779-.45.258-.157.5-.421.774-.454a10.224,10.224,0,0,1,7.092,1.878,26.46,26.46,0,0,1,2.756,2.407c.587.525.754.5,1.087-.161.788-1.573,1.5-3.189,2.39-4.706,1.6-2.732,3.229-5.448,4.974-8.085a13.354,13.354,0,0,0,2.3-5.606c.2-1.479.2-2.985.337-4.473.237-2.549.467-5.1.79-7.638a37.076,37.076,0,0,1,.951-5.383c1.251-4.44,2.646-8.84,3.992-13.253a12.4,12.4,0,0,0,.472-6.055c-.5-2.519-1.176-5.013-1.927-7.472a36.7,36.7,0,0,0-3.362-8.283c-1.1-1.836-2.02-3.832-3.892-5.092a18.155,18.155,0,0,0-4.742-2.684c-1.213-.365-2.5-.483-3.713-.848a2.62,2.62,0,0,0-2.125.25,17.671,17.671,0,0,0-6.28,5.322c-.993,1.469-2.231,2.766-2.679,4.592a61.866,61.866,0,0,0-1.4,7.151c-.236,1.884-.592,3.754-.926,5.624-.342,1.909-.728,3.81-1.087,5.716a7.947,7.947,0,0,0-.362,2.271,4.186,4.186,0,0,0,1.916,2.664,9.6,9.6,0,0,0,4.114,1.555c.529.11,1.252.324,1.6.081a18.19,18.19,0,0,0,2.86-2.5,14.913,14.913,0,0,0,2.537-4.326c.743-1.673,1.771-3.223,2.465-4.913a33.954,33.954,0,0,0,1.4-4.726,32.648,32.648,0,0,0,.629-3.564c.114-.838.126-1.69.164-2.537a13.543,13.543,0,0,1,.017-1.4c.112-.732.27-1.474,1.09-1.8.631-.248.938-.069.92.6s-.173,1.315-.136,1.964a66.585,66.585,0,0,1,.464,8.16.535.535,0,0,0,.178.383.439.439,0,0,0,.381.06,14.731,14.731,0,0,1,4.32-1.3c.673-.071,1.143.01,1.326.53.237.678-.315.92-.9,1.1q-2.183.655-4.334,1.409a2.945,2.945,0,0,0-1.1.7c-.159.163-.094.542-.13.824a2.141,2.141,0,0,0,.717.01,11.218,11.218,0,0,1,4.689-.907c.272.024.523.29.784.444-.18.208-.319.515-.545.607-1.871.759-3.768,1.459-5.633,2.229a1.5,1.5,0,0,0-.821.8,17.27,17.27,0,0,1-2.687,5.446,9.818,9.818,0,0,1-4.277,3.683c-1.465.558-3.024.869-4.537,1.3-.5.143-1.026.371-.843,1.013a14.8,14.8,0,0,0,3.7,6.34c1.719,1.768,3.58,3.4,5.366,5.1a1.915,1.915,0,0,1,.279.581,1.612,1.612,0,0,1-.629-.026,10.644,10.644,0,0,1-2.086-1.166c-1.564-1.305-3.065-2.689-4.565-4.07a15.885,15.885,0,0,1-3.312-5.262,5.473,5.473,0,0,1-.464-2.138,1.194,1.194,0,0,0-1.138-1.332,6.436,6.436,0,0,1-4.07-2.578c-.319-.447-.673-.536-1.137-.087a11.81,11.81,0,0,1-2.033,1.689.7.7,0,0,0-.381.86c.345,1.543.784,3.066,1.1,4.615a7.856,7.856,0,0,1-.019,4.511c-.112.286-.262.557-.4.835a3.09,3.09,0,0,1-.523-.873c-.5-2.507-.959-5.02-1.418-7.534-.12-.664-.186-1.309-1.157-1.132-.2.037-.464-.227-.7-.346-.28-.141-.568-.4-.843-.39-1.468.059-2.934.182-4.4.293a6.37,6.37,0,0,1-3.576-.969,8,8,0,0,1-4.334-5.559.811.811,0,0,0-.976-.655c-.317.05-.632.112-.951.154a36.888,36.888,0,0,0-3.772.516,24.084,24.084,0,0,0-7.655,2.982c-2.17,1.417-4.247,2.989-6.3,4.581a14.934,14.934,0,0,0-1.791,2.051,2.339,2.339,0,0,1-.481.329,4.053,4.053,0,0,1-.222-.609.515.515,0,0,1,.1-.344,28.948,28.948,0,0,1,1.944-2.857,21.768,21.768,0,0,1,5.975-4.588c1.277-.73,2.636-1.322,3.9-2.075,1.2-.716,2.323-1.56,3.477-2.351a1.3,1.3,0,0,0,.2-.218c-.156-.127-.3-.352-.468-.365a10.358,10.358,0,0,0-3.123-.126c-2.843.686-5.63,1.6-8.447,2.393-1.983.561-3.963,1.138-5.969,1.6-1.558.361-3.154.565-4.734.826-.317.052-.643.047-.965.068.172-.288.329-.588.525-.859.078-.108.244-.152.368-.227a12.277,12.277,0,0,1,4.111-1.2,32.677,32.677,0,0,0,3.536-.7,69.963,69.963,0,0,1,9.076-2.59c.173-.03.314-.242.47-.369-.139-.092-.272-.194-.417-.274a18.942,18.942,0,0,1-2.4-1.344,17.607,17.607,0,0,1-4.722-5.517,1.743,1.743,0,0,1,0-1.491c.386-.616.951-.247,1.424.106,1.31.976,2.6,1.981,3.96,2.887a34.636,34.636,0,0,0,3.579,2.1c1.671.847,3.5.477,5.262.447a15.835,15.835,0,0,0,3.565-.6,13.093,13.093,0,0,0,7.129-4.965,5.728,5.728,0,0,0,1.514-3.891,5.431,5.431,0,0,0-1.316-3.152M83.032,123.031c-.253-.1-.506-.192-.759-.291-2.823-1.1-5.615-2.291-8.48-3.27-1.993-.681-4.08-1.1-6.137-1.583-1.312-.31-2.64-.559-3.97-.778a13.37,13.37,0,0,0-2.2-.148c-.234,0-.467.236-.7.364a2.539,2.539,0,0,0,.323.482,13.615,13.615,0,0,0,1.371,1.212c3.63,2.6,7.3,5.136,10.9,7.783a13.85,13.85,0,0,1,2.524,2.629c.464.588.011,1.192-.756,1.258-1.118.1-1.851-.716-2.732-1.138-2.783-1.332-5.467-2.88-8.281-4.138-2.411-1.078-4.949-1.871-7.429-2.794-.766-.285-1.289-.052-1.394.582a13.679,13.679,0,0,1-.472,2.145c-.959,2.83-2.473,4.332-5.732,4.238-1.176-.034-2.352-.091-3.526-.156a11.468,11.468,0,0,1-4.465-1.091c-1.026-.5-1.315-.332-1.734.742a17.736,17.736,0,0,0-.922,5.784c-.021.467.035.941-.02,1.4-.026.221-.226.422-.347.632-.11-.145-.289-.276-.32-.436a28.5,28.5,0,0,1-.547-3.2,9.464,9.464,0,0,1,1.073-5.48c.259-.462.065-.7-.406-.853-.843-.283-1.673-.609-2.5-.931-.472-.184-.874-.275-1.281.2a7.945,7.945,0,0,1-3.282,2.243,1.845,1.845,0,0,0-.79.887,50.868,50.868,0,0,1-2.907,5.65,32.146,32.146,0,0,1-4.389,4.875A10.067,10.067,0,0,1,20,141.283c-.145.068-.392-.083-.591-.133.109-.189.17-.463.334-.554a15.864,15.864,0,0,0,4.219-3.9,34.435,34.435,0,0,0,4.124-6.964c.189-.373.022-.577-.37-.608-.759-.059-1.528-.047-2.275-.173a11.4,11.4,0,0,1-2.69-.658,11.332,11.332,0,0,1-5.382-5.568c-.59-1.137-.86-2.523-2.232-3.116-.155-.067-.252-.26-.392-.376-.482-.4-.957-.815-1.458-1.192-1.029-.773-2.08-1.517-3.1-2.3-.129-.1-.141-.35-.207-.531.2-.05.42-.183.594-.138a12,12,0,0,1,3.987,2.246,3.087,3.087,0,0,0,.52.25,1.783,1.783,0,0,0,.1-.632,10.132,10.132,0,0,1-.413-1.458c-.043-.692-.441-.945-1-1.131-1.439-.482-2.879-.964-4.308-1.475-.2-.072-.345-.312-.515-.473.208-.1.434-.308.62-.277a29.8,29.8,0,0,1,4.116.806c.783.247.737-.011.733-.558a44.979,44.979,0,0,1,.619-10.046c.123-.563.274-1.127.907-1.29.352-.091.808.725.812,1.377,0,.026,0,.052,0,.078-.1,2.325-.24,4.649-.3,6.975a26.034,26.034,0,0,0,.156,3.368,33.881,33.881,0,0,0,.569,3.666,18.438,18.438,0,0,0,3.165,6.883,7.77,7.77,0,0,0,5.581,3.375,8.607,8.607,0,0,0,6.364-1.557,3.462,3.462,0,0,0,1.456-3.693,17.775,17.775,0,0,1-.6-5.135c0-1.405.018-2.811-.007-4.215a16.856,16.856,0,0,0-.163-2.431c-.266-1.622-.591-3.235-.931-4.843a7.435,7.435,0,0,0-.723-2.577c-1.343-2-2.851-3.883-4.328-5.787-.924-1.191-1.887-2.352-2.876-3.489a3.44,3.44,0,0,0-1.171-.892,10.4,10.4,0,0,0-5.519-.753,12.236,12.236,0,0,0-3.638,1.17,7.345,7.345,0,0,0-3.408,3.193,19.512,19.512,0,0,0-1.076,1.741c-.63,1.588-1.15,3.219-1.734,4.825-.929,2.555-1.905,5.094-2.8,7.66a18.693,18.693,0,0,0-1.1,5.934c-.033,2.9.085,5.8.306,8.689a58.419,58.419,0,0,0,.928,6.558c.655,3.407,1.414,6.8,2.174,10.182.586,2.612,1.087,5.259,1.9,7.8a102.11,102.11,0,0,0,5.148,13.788c1.238,2.54,2.671,4.985,4.035,7.463.408.742.789.729,1.446.162a12.006,12.006,0,0,1,1.975-1.444,20.27,20.27,0,0,1,9.237-2.17,27.659,27.659,0,0,1,4.549.318c.376.047.7.529,1.045.813-.28.237-.527.615-.846.69-2.164.512-4.372.856-6.51,1.452-3,.838-5.948,1.839-8.907,2.806a.929.929,0,0,0-.558.654c.027.792.214,1.577.275,2.37.176,2.275.442,4.553.451,6.831.023,5.547-.054,11.095-.141,16.642-.054,3.444-.182,6.887-.31,10.331-.064,1.727-.2,3.452-.306,5.179q-.148,2.356-.313,4.711-.146,2.082-.312,4.164c-.151,1.888-.312,3.774-.467,5.661-.157,1.913-.32,3.825-.466,5.739-.116,1.518-.208,3.037-.316,4.554-.045.629-.082,1.26-.159,1.886-.2,1.582-.42,3.159-.618,4.739-.168,1.34-.293,2.684-.477,4.02-.179,1.3-.417,2.586-.616,3.88-.132.859-.178,1.736-.374,2.581-.282,1.213-.18,1.5.92,2.077.645.334,1.233.795,1.9,1.069,2.2.906,4.4,1.833,6.649,2.6a26.376,26.376,0,0,0,6.834,1.8c2.286.145,4.564.57,6.846.576,4.667.012,9.334-.158,14-.284,2.586-.069,5.174-.151,7.755-.322,1.819-.122,3.639-.331,5.439-.625a38.692,38.692,0,0,0,8.717-2.692c2-.837,4.017-1.611,6.01-2.453,1-.42,1.966-.912,2.93-1.405a.946.946,0,0,0,.6-1.118c-.286-1.1-.636-2.189-.895-3.3-.405-1.738-.792-3.482-1.12-5.235-.355-1.892-.626-3.8-.949-5.7-.3-1.772-.631-3.54-.931-5.312-.231-1.365-.427-2.735-.653-4.1-.3-1.8-.621-3.6-.907-5.4-.183-1.154-.291-2.32-.479-3.472-.289-1.775-.628-3.541-.928-5.313-.273-1.607-.5-3.223-.789-4.828-.395-2.2-.847-4.387-1.236-6.589-.246-1.39-.408-2.795-.635-4.189-.3-1.825-.636-3.643-.928-5.468-.232-1.446-.4-2.9-.634-4.345-.293-1.827-.64-3.643-.925-5.469-.192-1.23-.311-2.473-.477-3.708-.2-1.475-.412-2.951-.623-4.425-.159-1.105-.32-2.208-.489-3.312-.248-1.613-.522-3.223-.753-4.839a25.212,25.212,0,0,1-.3-2.913c-.049-1.934,0-3.871-.041-5.805,0-.187-.369-.554-.487-.525a20.332,20.332,0,0,1-5.278.44c-.452,0-1.12.139-1.167-.4-.026-.3.628-.667.981-1,.028-.027.1,0,.153,0,1.111-.208,2.229-.386,3.33-.635A5.557,5.557,0,0,0,69,159.65c2.1-1.6,4.119-3.3,6.135-5,1.995-1.684,4.035-3.328,5.894-5.154a50.531,50.531,0,0,0,4.851-5.481,45.893,45.893,0,0,0,3.965-6.158,31.768,31.768,0,0,0,2.43-6.009c.848-2.92,1.6-5.907,1.13-9-.276-1.821-.673-3.623-1-5.437-.193-1.067-1.221-1.946-.709-3.172a.339.339,0,0,0-.032-.217,28.858,28.858,0,0,0-3.421-6.545c-1.211-1.685-2.365-3.417-3.661-5.035a48.217,48.217,0,0,0-3.968-4.426,5.7,5.7,0,0,0-5.082-1.529c-2.054.327-4.137.519-6.163.969a40.3,40.3,0,0,1-7.178.746c-1.039.041-2.1-.106-3.118.036a11.465,11.465,0,0,0-3.6.9,12.751,12.751,0,0,0-5.481,5.11c-.782,1.393-1.022,2.812.341,4.037.56.5,1.14.989,1.747,1.434a14.863,14.863,0,0,0,8.679,3.158c1.018.015,2.041-.067,3.057-.152a10.683,10.683,0,0,0,4.335-1.211c1.889-1.045,3.742-2.154,5.6-3.251.459-.271.971-.35,1.248.082a1.521,1.521,0,0,1,.151,1.283,14.792,14.792,0,0,1-1.744,2.555,10.642,10.642,0,0,1-4.8,2.905c-.2.071-.331.334-.474.523a.6.6,0,0,0,.251.236c1.526.4,3.073.737,4.581,1.2a46.881,46.881,0,0,1,11.073,4.918c.337.209.8.769.717.995-.2.575-.819.437-1.323.32a1.288,1.288,0,0,1-.4-.24m118.9,15.848a20.322,20.322,0,0,1,.649-2.383.72.72,0,0,0-.244-.962c-.5-.43-.976-.883-1.479-1.308a1.74,1.74,0,0,0-.514-.262,12.637,12.637,0,0,1-2.548-.988,31.219,31.219,0,0,1-3.768-2.966c-1.533-1.4-2.981-2.905-4.42-4.409a17.2,17.2,0,0,1-1.722-2.172c-1.255-1.84-2.559-3.658-3.674-5.583a31.524,31.524,0,0,1-3.527-7.748c-.045-.177-.236-.317-.359-.474-.084.081-.225.15-.247.245a10.472,10.472,0,0,0-.443,2.379c.033,1.266.375,2.522.417,3.788.108,3.255.116,6.513.176,9.77.039,2.086.112,4.172.151,6.258q.091,4.729.158,9.458a4.277,4.277,0,0,0,.412,2.332,2.562,2.562,0,0,1,.206,1.234c.064,4.063.086,8.127.173,12.19.047,2.119.176,4.234.309,6.35.125,1.992.3,3.981.462,5.972q.229,2.869.47,5.738.225,2.675.467,5.349c.153,1.7.315,3.408.467,5.113q.241,2.675.468,5.348.239,2.792.468,5.582c.161,1.991.312,3.983.47,5.974.155,1.964.322,3.928.465,5.894q.251,3.415.468,6.831c.117,1.8.233,3.607.311,5.413.122,2.87.2,5.743.325,8.612.058,1.312.169,2.623.311,3.928.234,2.133.542,4.258.765,6.392.153,1.46.212,2.931.329,4.4a1.133,1.133,0,0,0,.2.458c.042.067.142.1.215.148a2.036,2.036,0,0,0,.039-.217q.237-3.063.47-6.128c.052-.681.089-1.363.159-2.042.2-1.944.415-3.886.62-5.83.111-1.049.183-2.1.32-3.148.181-1.376.429-2.74.612-4.114s.306-2.734.478-4.1c.194-1.529.426-3.052.617-4.583.128-1.02.192-2.048.322-3.07.189-1.477.42-2.949.617-4.425.122-.918.19-1.842.32-2.759.189-1.347.429-2.687.615-4.034.18-1.312.29-2.632.479-3.942.289-2.008.629-4.008.927-6.014.225-1.524.442-3.049.621-4.581q.422-3.581.782-7.17c.13-1.28.186-2.57.323-3.85q.358-3.354.778-6.7c.187-1.5.39-3.006.626-4.5.289-1.825.615-3.646.934-5.466.19-1.09.4-2.177.59-3.267.28-1.63.571-3.258.8-4.895.2-1.386.283-2.789.487-4.175.331-2.248.718-4.487,1.084-6.886M26.824,55.425c-.551.916-1.1,1.834-1.655,2.746a31.651,31.651,0,0,0-3.155,7.285c-.312,1.013.134,1.977-.344,3.031a12.655,12.655,0,0,0-.828,4.25,20.114,20.114,0,0,0,.472,6.663,38.441,38.441,0,0,0,2.772,7.514c.482.953.769,1.073,1.733.588,1.292-.65,2.589-1.288,3.878-1.944a16.322,16.322,0,0,1,7.747-2.031c.971.016,1.943-.01,2.915.006a6.962,6.962,0,0,1,3.193.77c1.036.546,1.139.457,1.152-.72a4.859,4.859,0,0,1,2.7-4.4,8.639,8.639,0,0,1,4.052-.944,19.594,19.594,0,0,1,3.055.153,25.215,25.215,0,0,1,3.345.589,38.194,38.194,0,0,1,7.476,3.242c.636.32.733.249.766-.478.026-.578.08-1.156.155-1.73A2.274,2.274,0,0,1,68.2,78.085a6.778,6.778,0,0,1,2.089.217c1.955.539,3.889,1.159,5.83,1.749.387.118.693-.04.572-.418-.411-1.282-.879-2.548-1.368-3.8-.31-.8-.925-.681-1.534-.383-.585.286-1.134.661-1.739.889A20.875,20.875,0,0,1,64.218,77.6a4.1,4.1,0,0,1-2.787-1.177,8.745,8.745,0,0,1-2.2-4.387c-.245-.937-.557-1.15-1.414-.76-2.124.966-4.292,1.852-6.348,2.947-2.356,1.254-4.625,2.673-6.9,4.069-1.3.794-2.507,1.723-3.811,2.5-.33.2-.865.048-1.306.058a3.729,3.729,0,0,1,.044-1.212A3.425,3.425,0,0,1,40.3,78.5c1.079-1.071,2.166-2.137,3.3-3.146,1.243-1.1,2.51-2.186,3.826-3.2a31.6,31.6,0,0,0,5.521-5.085c.149-.186.326-.54.248-.673a.841.841,0,0,0-.685-.332,21.133,21.133,0,0,0-2.461.455,41.947,41.947,0,0,0-4.421,1.2c-2.819,1.037-5.6,2.172-8.375,3.336-1.2.5-2.327,1.169-3.479,1.777-1.026.541-2.032,1.122-3.071,1.636-.209.1-.525-.01-.791-.023A6.469,6.469,0,0,1,30.1,73.7a.639.639,0,0,1,.269-.276c2.118-1.292,4.165-2.729,6.379-3.829,2.686-1.334,5.516-2.38,8.279-3.562a5.661,5.661,0,0,0,.763-.477,3.217,3.217,0,0,0-.808-.594A13.436,13.436,0,0,1,41.337,63.4a8.93,8.93,0,0,1-3.175-3.351,1.143,1.143,0,0,1,.017-.934.941.941,0,0,1,.8-.231,4.547,4.547,0,0,1,1.136.448c1.3.623,2.595,1.273,3.9,1.886A12.017,12.017,0,0,0,49.6,62.448q1.491-.052,2.98-.157a12.754,12.754,0,0,0,4.494-1.209,18.065,18.065,0,0,0,5.658-4.244,3.052,3.052,0,0,0,.295-3.931,13.663,13.663,0,0,0-3.351-3.5,10.053,10.053,0,0,0-4.75-2.056c-1.859-.162-3.751.08-5.63.1-2.246.026-4.5.109-6.738-.022-2.338-.137-4.631-.778-7.019-.465a6.409,6.409,0,0,0-3.822,1.711,38.165,38.165,0,0,0-4.888,6.746M274.531,95.474c-.053.056-.134.1-.151.17-.45,1.688-.849,3.39-1.347,5.063-.79,2.66-1.671,5.293-2.461,7.953-.359,1.212-.6,2.459-.867,3.7-.041.188.1.416.164.626a2.665,2.665,0,0,0,.537-.28c.506-.427.966-.911,1.49-1.313a49.74,49.74,0,0,0,7.032-6.554,47.519,47.519,0,0,0,5.176-6.758c1.421-2.35,2.884-4.677,4.228-7.07.667-1.188,1.1-2.507,1.658-3.758a12.947,12.947,0,0,0,1.235-8.015c-.457-2.243-.921-4.494-1.558-6.691a35.417,35.417,0,0,0-3.391-7.958,21.926,21.926,0,0,0-4.95-6.061,12.612,12.612,0,0,0-7.75-2.758c-2.209-.093-4.43.077-6.645.127-2.372.054-4.743.1-7.115.159q-2.075.055-4.15.16a9.693,9.693,0,0,0-1.4.2,6.4,6.4,0,0,0-4.314,3.4A.976.976,0,0,0,250,61.153,5.854,5.854,0,0,1,251.573,64c.1.456.209.53.706.361,1.02-.347,2.08-.727,3.121.075.2.152.6.031.912.042a9.95,9.95,0,0,1,2.621.148,24.085,24.085,0,0,1,3.878,1.741,14.735,14.735,0,0,1,4.063,3.358c.45.512.737,1.228,1.276,1.585.665.442,1.163-.407,1.771-.59a1.705,1.705,0,0,0,.323-.161,16.425,16.425,0,0,0,4.807-3.838,1.047,1.047,0,0,1,.909-.327,1.227,1.227,0,0,1,.578.869,5.416,5.416,0,0,1-1.5,4.286,16.211,16.211,0,0,1-4.289,3.209c-.245.141-.609.536-.556.655.384.869.514,1.929,1.518,2.4,1.045.49,2.117.923,3.146,1.445,1.613.821,3.216,1.668,4.786,2.57.381.219.615.7.918,1.053-.486.359-.915.141-1.382-.083-1.432-.684-2.878-1.343-4.326-1.99a20.151,20.151,0,0,0-2.08-.817c-.331-.105-.845-.287-.6.5.49,1.571.932,3.158,1.338,4.753a27.1,27.1,0,0,1,1.168,7.007c-.014,1.02-.1,2.038-.15,3.213M159.616,30.366a52.148,52.148,0,0,1,2.684-5.438,73.793,73.793,0,0,1,7.418-9.032,1.581,1.581,0,0,0,.4-1.608,3.4,3.4,0,0,0-2.009-2.248,11.886,11.886,0,0,0-4.375-1.122c-2.284-.175-4.561-.489-6.846-.592a10.8,10.8,0,0,0-5.933,1.852,15.639,15.639,0,0,0-4.383,4.232,23.965,23.965,0,0,0-1.865,2.662c-.964,1.7-1.837,3.45-2.718,5.2a.8.8,0,0,0,.061.686c.652.909,1.452,1.727,2.009,2.688,1.729,2.982,2.041,5.76-.068,8.842a21.1,21.1,0,0,1-5.3,5.2c-.3.217-.566.384-.332.887a4.217,4.217,0,0,1,.182,1.406c.111,1.413.208,2.828.315,4.241a14.54,14.54,0,0,0,1.726,6,5.176,5.176,0,0,0,2.92,2.778,5.229,5.229,0,0,0,2.775-.159c2.881-.637,5.591-1.611,7.541-3.979a11.582,11.582,0,0,0,1.718-2.562,30.639,30.639,0,0,0,1.893-8.111c.3-1.994.443-4.014.812-5.993.356-1.908.913-3.779,1.382-5.823M61.173,47.618c.806.754,1.617,1.5,2.418,2.264a7.6,7.6,0,0,1,2.385,4.328,5.058,5.058,0,0,1-1.28,4.345,24.574,24.574,0,0,1-2.916,2.513c-.534.457-1.148.876-1.152,1.692-.006,1.544-.109,3.1.031,4.628A4.815,4.815,0,0,0,62.136,70.9a11.3,11.3,0,0,0,6.154,2.438,25.073,25.073,0,0,0,4-.264c1.826-.111,3.433-.541,4.551-2.21a8.164,8.164,0,0,0,1.732-4.825c-.075-2.507-.3-5.013-.276-7.518s.27-5.022.449-7.531a7.932,7.932,0,0,1,.331-2.046A30.532,30.532,0,0,1,83.409,41.6a37.824,37.824,0,0,0,2.468-3.894c.56-1.043.13-1.695-1.067-2.121-.9-.322-1.773-.744-2.674-1.08a26.1,26.1,0,0,0-7.12-2,13.4,13.4,0,0,0-6.77.758,4.572,4.572,0,0,0-2.857,2.787c-.273.949-.6,1.883-.934,2.812-.742,2.059-1.484,4.119-2.269,6.162-.258.671-.661,1.286-.975,1.937a1.117,1.117,0,0,0-.039.653M29.244,96.1c.46.512.939,1.009,1.377,1.54a15.04,15.04,0,0,1,2.824,4.76,20.617,20.617,0,0,1,.754,3.042,58.43,58.43,0,0,1,.937,6.392c.153,2.59.106,5.182.475,7.771.338,2.369,2.391,5.762,5.854,5.77,2.291,0,4.62.169,6.771-.8a16.389,16.389,0,0,0,3.574-2.08,4.409,4.409,0,0,0,1.289-3.643,33.151,33.151,0,0,0-.472-4.719,1.828,1.828,0,0,0-.883-1.21,11.324,11.324,0,0,1-3.876-2.884,5.3,5.3,0,0,1-1.261-4.686,10.889,10.889,0,0,1,3.948-5.987c.532-.463.388-.594.053-.958a4.181,4.181,0,0,1-.743-1c-.482-1.022-.875-2.085-1.358-3.105-.916-1.938-1.973-3.816-2.772-5.8a4.5,4.5,0,0,0-2.567-2.6c-2.489-1.027-5.084-.765-7.625-.266a19.652,19.652,0,0,0-4.034,1.362c-1.874.821-3.705,1.747-5.512,2.708-.8.423-.87.9-.329,1.762.592.939,1.282,1.819,1.958,2.7.489.639,1.025,1.243,1.618,1.94M231.36,61.671c-.056.159-.1.324-.169.478-.643,1.451-1.3,2.9-1.938,4.35s-1.213,2.935-1.892,4.367c-.333.7-.489,1.562-1.333,1.956-.084.039-.075.542.05.713.473.649,1.094,1.2,1.513,1.879a6.246,6.246,0,0,1,.251,6.5,2.949,2.949,0,0,0-.147,1.133c-.03.547.078,1.1-.379,1.565-1.358,1.38-2.6,2.892-4.067,4.143a3.355,3.355,0,0,0-1.471,2.9,26.506,26.506,0,0,0,.635,4.419c.478,1.862,2.109,3.736,4.262,3.352a13.581,13.581,0,0,0,3.271-.948,24.084,24.084,0,0,0,5.552-3.765c.768-.658,1.471-1.552,2.715-1.386.159.021.493-.343.543-.573q.672-3.166,1.263-6.349c.437-2.374.823-4.757,1.258-7.131a24.2,24.2,0,0,1,1.875-5.935,30.334,30.334,0,0,1,4.216-5.982A24,24,0,0,0,248.9,65.5a1.864,1.864,0,0,0-.186-2.712,9.018,9.018,0,0,0-4.077-2.027c-2.259-.665-4.553-1.23-6.857-1.719a27.421,27.421,0,0,0-4.1-.474c-1.174-.068-1.76.361-1.93,1.205-.122.6-.212,1.214-.393,1.9M98.333,115.693c1.137,1.128,1.558,1.093,2.214-.357,1.02-2.255,2.06-4.509,2.909-6.831.927-2.535,1.681-5.136,2.441-7.729.532-1.816.89-3.684,1.441-5.494a1.546,1.546,0,0,0-.581-1.749c-1.195-1.1-2.475-2.1-3.646-3.224-.822-.787-1.531-1.694-2.273-2.563-1.46-1.707-2.99-3.363-4.341-5.153-1.779-2.357-3.4-4.829-5.118-7.235-.367-.515-.763-.943-1.581-.6a10.953,10.953,0,0,1-2.119.353c-.376.071-.961.146-1.046.372a1.579,1.579,0,0,0,.282,1.138,24.8,24.8,0,0,0,3.8,5.368c1.229,1.177,2.5,2.316,3.809,3.4a10.369,10.369,0,0,0,1.722.909c.109.059.166.213.248.324-.156.064-.324.2-.465.179a7.724,7.724,0,0,1-3.689-1.8c-1.283-1.072-2.46-2.276-3.644-3.461a22.539,22.539,0,0,1-3.731-5.785,1.918,1.918,0,0,0-1.011-.928,7.734,7.734,0,0,1-3.241-1.769,1.261,1.261,0,0,0-1.677-.211,18.615,18.615,0,0,1-2.086.99c-1.034.4-1.113.493-.6,1.451a9.042,9.042,0,0,1,1.334,4.537,1.733,1.733,0,0,0,.722,1.224,13.3,13.3,0,0,0,2.621,1.378c1.527.589,3.117,1.014,4.646,1.6.938.358,1.819.843,1.684,2.147-.031.295.29.657.51.941.583.754,1.237,1.455,1.794,2.227,1.114,1.545,1.165,3.394,1.229,5.174.1,2.883.055,5.774,0,8.66a1.959,1.959,0,0,1-.582,1.435c-.932.606-.664,1.1-.11,1.719.11.122.152.3.252.439.654.887.976,2.081,2.259,2.391a1.711,1.711,0,0,1,.746.441c.193.189.3.431-.171.494-.594.08-.811.376-.519,1s.436,1.332.749,1.95c.209.413.567,1.005.915,1.047a13.188,13.188,0,0,1,3.9,1.615m13.037,21.468a2.525,2.525,0,0,1,0-.39c.256-1.61.539-3.216.771-4.83.189-1.31.311-2.629.477-3.942.2-1.58.425-3.157.619-4.738.125-1.021.2-2.049.32-3.07.193-1.581.417-3.158.619-4.738.12-.941.192-1.89.343-2.826.224-1.383.507-2.756.749-4.136a24.341,24.341,0,0,0,.437-2.856c.063-1.171-.023-2.351-.048-3.526,0-.042-.047-.084-.074-.124a18.413,18.413,0,0,0-3.731-4.287c-.34-.271-.661-.224-.81.34-.484,1.824-.96,3.654-1.568,5.439a35.922,35.922,0,0,1-1.912,4.668c-1.094,2.157-2.318,4.251-3.543,6.338a30.3,30.3,0,0,1-2.425,3.669,2.445,2.445,0,0,0-.483,2.037c.021.169.1.333.1.5.059,1.331.1,2.663.163,3.994.093,1.857.2,3.713.311,5.569.042.708.085,1.416.158,2.121.2,1.918.415,3.835.62,5.752.109,1.023.179,2.051.32,3.07.235,1.691.537,3.373.766,5.065.192,1.414.31,2.837.478,4.254.2,1.658.42,3.314.62,4.972.117.971.187,1.946.322,2.913.24,1.717.529,3.427.766,5.143.1.7.085,1.416.179,2.119.03.219.244.414.374.621a3.118,3.118,0,0,0,.228-.6c.09-.567.12-1.143.218-1.708.282-1.624.6-3.24.878-4.864.238-1.39.431-2.785.665-4.176.289-1.724.6-3.446.9-5.168.245-1.38.508-2.757.748-4.138.279-1.6.537-3.211.813-4.816.2-1.164.415-2.326.623-3.644m13.974-116.4c.845.156,1.687.344,2.537.462,2.021.28,4.056.474,6.069.8,1.76.288,3.513.652,5.235,1.11.6.159.766,0,.912-.463.231-.736.421-1.489.7-2.208.825-2.154,1.726-4.279,2.515-6.446a28.473,28.473,0,0,0,1.5-6.564,3.375,3.375,0,0,0-1.438-3.183,3.323,3.323,0,0,0-2.293-.661,42.049,42.049,0,0,0-4.316.3c-1.874.213-3.757.416-5.6.793a11.425,11.425,0,0,0-5.9,3.225,12.579,12.579,0,0,0-3.107,5.25c-.594,2-1.066,4.034-1.571,6.058-.143.572.2.82.724.9,1.292.2,2.584.415,4.032.623m137.32,119.052a2.081,2.081,0,0,0,0-.312c-.033-.235-.08-.469-.122-.7a4.8,4.8,0,0,0-.523.579c-.331.509-.651,1.027-.94,1.561-.966,1.784-1.977,3.549-2.848,5.379a7.157,7.157,0,0,0-.679,2.669c-.053,1.147.206,2.3.265,3.46.086,1.668.114,3.339.166,5.009.053,1.747.1,3.5.158,5.243.1,2.664.181,5.327.318,7.989.12,2.358.3,4.711.462,7.067q.225,3.26.468,6.519c.15,2.017.309,4.034.467,6.052q.232,2.946.468,5.894c.048.6.087,1.208.159,1.808.2,1.658.429,3.313.615,4.973.133,1.177.2,2.361.322,3.538.194,1.816.42,3.627.618,5.441.12,1.1.186,2.206.336,3.3a.866.866,0,0,0,.5.62,2.578,2.578,0,0,0,2.44-2.222c.008-.737.025-1.475,0-2.212q-.138-3.644-.311-7.287c-.092-1.986-.2-3.972-.311-5.958-.1-1.858-.219-3.713-.308-5.571-.117-2.428-.208-4.857-.319-7.285-.037-.838-.109-1.674-.151-2.512q-.164-3.213-.314-6.428-.159-3.37-.312-6.74-.159-3.565-.312-7.129c-.055-1.28-.112-2.559-.155-3.839-.059-1.852-.142-3.7-.151-5.556-.022-4.4-.006-8.795-.006-13.349M103.486,7.18a16.993,16.993,0,0,0-1.979,1.42,31.889,31.889,0,0,0-3.535,3.651,16.472,16.472,0,0,0-3.1,8.831c-.228,2.842-.053,5.717-.036,8.578,0,.158.18.315.277.472a3.881,3.881,0,0,0,.333-.349c.638-.853,1.2-1.77,1.918-2.552a35.291,35.291,0,0,1,3.584-3.562,24.227,24.227,0,0,1,4.27-2.858,11.727,11.727,0,0,1,5.48-1.456c1.881.021,3.764-.041,5.643.025.866.03.966.04.966-.857q0-3.628,0-7.255c0-1.231.061-2.467-.024-3.692a5.438,5.438,0,0,0-.544-1.949,3.08,3.08,0,0,0-2.91-1.578c-1.388-.087-2.812.31-4.166-.293-.084-.037-.23.052-.343.1a26.358,26.358,0,0,0-5.83,3.331M62.266,29.351a7.618,7.618,0,0,0-3.972-.51,24.241,24.241,0,0,0-4.919.963A38.8,38.8,0,0,0,45.23,33.88a2.048,2.048,0,0,0-1,1.922c-.029,1.045-.1,2.09-.151,3.134-.05.967-.124,1.933-.15,2.9a18.561,18.561,0,0,1-.073,3.209c-.145.7.226.755.568.835a6.44,6.44,0,0,0,1.725.165c1.519-.067,3.036-.191,4.552-.3.5-.037,1-.149,1.5-.144a22.4,22.4,0,0,1,3.635.154,16.147,16.147,0,0,1,3.356,1.106c.755.316.983-.125.947-.621-.09-1.258.568-2.262.941-3.368,1.017-3.019,2.448-5.9,2.859-9.123.226-1.773.15-3.324-1.665-4.4M46.887,83.139a26.089,26.089,0,0,0,.463,3.246c.862,3.213,2.578,6.062,4,9.034a4.049,4.049,0,0,1,.705,2.294c-.062.508.339.654.817.359.435-.268.86-.556,1.309-.8a13.248,13.248,0,0,1,5.727-1.235c.883-.052,1.777.129,2.666.127.967,0,1.935-.085,2.9-.148a17.318,17.318,0,0,0,1.729-.163c.576-.1.817-.367.6-1.037a7.179,7.179,0,0,1-.44-2.384c.077-2.311-.56-4.52-.816-6.781a1.689,1.689,0,0,0-1.1-1.516c-1.49-.613-2.918-1.376-4.413-1.972a20.12,20.12,0,0,0-10.684-1.611c-1.576.245-2.944.717-3.471,2.584M228.628,58.782a2.486,2.486,0,0,1,.5-.487c.551-.291,1.012-.7.881-1.333-.175-.858-.393-1.907-1.474-1.974a35.274,35.274,0,0,0-5.318.03c-1.424.128-2.812.626-4.233.864a32.19,32.19,0,0,0-8.35,2.643c-.787.367-1.61.784-1.794,1.781a11.552,11.552,0,0,0-.192,1.48c-.07,1.33-.086,2.664-.17,3.993-.066,1.052-.214,2.1-.3,3.15a.887.887,0,0,0,.784,1,25.916,25.916,0,0,0,2.912.317c1.85.087,3.707.058,5.554.188a16.494,16.494,0,0,1,3.266.582c1.248.35,2.447.872,3.677,1.287a.546.546,0,0,0,.489-.219,13.236,13.236,0,0,0,.333-1.425c.573-2.7,1.112-5.413,1.732-8.1a7.165,7.165,0,0,1,1.7-3.773m7.729-1.8c1.85.364,3.714.677,5.549,1.108,1.7.4,3.38.859,5.031,1.412,1.137.38,1.123.422,1.856-.57a20.047,20.047,0,0,1,2.033-2.339c.562-.553.787-1,.308-1.751a8.229,8.229,0,0,1-.8-1.927,17.2,17.2,0,0,0-5.067-8.268,9.773,9.773,0,0,0-6.053-2.311c-2.209-.088-4.431.02-6.642.148a4.376,4.376,0,0,0-2.981,1.439,1.827,1.827,0,0,0-.011,2.4c.609.8,1.14,1.656,1.7,2.492.134.2.212.441.359.63a26.6,26.6,0,0,1,3.708,6.5,2.877,2.877,0,0,0,1.01,1.036m30.212-12.881a9.327,9.327,0,0,0-4.935-3.643,38.348,38.348,0,0,0-4.611-1.107c-1.33-.268-2.681-.447-4.028-.631a2.675,2.675,0,0,0-2.609,1.963,15.746,15.746,0,0,0,.062,4.426c.273,1.767.873,3.481,1.279,5.229.306,1.312.515,2.645.795,3.963.167.788.507.95,1.291.816a23.751,23.751,0,0,1,3.313-.457c3.669-.1,7.34-.124,11.009-.175.617-.009,1.01-.207.938-.936-.126-1.255-.109-2.533-.344-3.765a14.005,14.005,0,0,0-2.161-5.683m12.022,11.242c.462.2.946.367,1.383.613a18.61,18.61,0,0,1,6.462,6.3c.476.734.893,1.506,1.379,2.234.134.2.414.306.628.454a2.473,2.473,0,0,0,.287-.622c.225-1.5.4-3,.64-4.5a15.137,15.137,0,0,0,0-5.673,13.244,13.244,0,0,0-1.686-4.682,26.573,26.573,0,0,0-6.128-6.17,5.114,5.114,0,0,0-3.991-1.326A3.31,3.31,0,0,1,276,41.822a2.683,2.683,0,0,0-3.476,2.184c-.368,1.952-.561,3.938-.8,5.913-.134,1.1-.189,2.2-.325,3.3a1,1,0,0,0,1.038,1.265q.546.021,1.091,0a15.672,15.672,0,0,1,5.06.861M25.028,39.578a2.467,2.467,0,0,1-.279.429,6.751,6.751,0,0,0-2.05,5.078c.046,1.909.185,3.816.3,5.723.085,1.363.17,2.727.335,4.081a1.418,1.418,0,0,0,.642.814c.086.058.525-.249.68-.474.873-1.27,1.712-2.564,2.554-3.855a16.92,16.92,0,0,1,4.131-4.667,6.28,6.28,0,0,1,3.449-1.275c1.227-.05,2.455-.158,3.681-.138.947.016,1.89.2,2.836.289.505.046.726-.228.743-.734.034-1.045.064-2.093.158-3.134a11.517,11.517,0,0,0-1.539-6.548,3.465,3.465,0,0,0-3.834-1.632c-1.16.407-2.371.681-3.508,1.141a41.074,41.074,0,0,0-4.985,2.268,26.084,26.084,0,0,0-3.317,2.634m44.42,48.48a6.21,6.21,0,0,0-.213,1.461c.087.981.3,1.951.446,2.928.115.761.175,1.533.33,2.285.07.337.273.568.77.446a19.379,19.379,0,0,1,6.988-.747,7.88,7.88,0,0,1,4.4,2,48.506,48.506,0,0,1,5.946,6.885,2.852,2.852,0,0,0,.717.49,2.88,2.88,0,0,0,.2-.771c-.089-3.467-.148-6.936-.337-10.4a4.961,4.961,0,0,0-.853-2.507,16.018,16.018,0,0,0-2.6-2.644A12.217,12.217,0,0,0,80.9,85c-2.191-.682-4.385-1.377-6.616-1.9a2.838,2.838,0,0,0-3.219.927,28.914,28.914,0,0,0-1.616,4.032m16.16-34.115c.052-.447.1-.895.157-1.341.206-1.579.39-3.163.645-4.734a2.575,2.575,0,0,1,.572-.914,5.562,5.562,0,0,0,.8-1.062c1.072-2.757,2.1-5.532,3.135-8.3a2.163,2.163,0,0,0,.069-.442,1.515,1.515,0,0,0-.53-.055,8.248,8.248,0,0,0-1.717.557A4.315,4.315,0,0,0,87.2,38.807q-2.05,2.911-3.931,5.94a20.383,20.383,0,0,0-2.432,4.447,20.361,20.361,0,0,0-.809,5.666c-.053,3.077.166,6.158.27,9.238,0,.078,0,.156,0,.234a33.819,33.819,0,0,1-.163,3.636,4.448,4.448,0,0,0,1.311,3.671A9,9,0,0,0,89.088,72.9c.381-.092.706-.268.451-.91-.948-2.393-1.867-4.8-2.639-7.258a28.612,28.612,0,0,1-1.288-7.82c-.026-.936,0-1.873,0-2.966m128.811-3.123a3.424,3.424,0,0,0-.311.341c-.671.969-1.3,1.968-2.017,2.905-.612.8-1.327,1.53-1.964,2.316-.12.149-.091.419-.13.634a2.338,2.338,0,0,0,.64-.084c.882-.382,1.746-.806,2.628-1.191a40.727,40.727,0,0,1,6.064-1.762,29.554,29.554,0,0,1,8.609-1.037,4.153,4.153,0,0,1,1.568.345,4.1,4.1,0,0,1,2.39,3.1c.125.657.595.679,1.035.571.264-.064.668-.417.651-.606a2.93,2.93,0,0,0-.479-1.345c-.974-1.4-2.067-2.723-3-4.149a22.093,22.093,0,0,1-2.167-3.935,2.31,2.31,0,0,0-1.1-1.471,11.845,11.845,0,0,0-6.247-1.1c-1.683.193-3.28.679-4.17,2.3-.718,1.308-1.335,2.671-2,4.165M205.52,65.5c.156-2.274.309-4.549.471-6.823a7.889,7.889,0,0,1,.156-1.026,3.987,3.987,0,0,0-1.272-3,4.14,4.14,0,0,0-3.552-.408c-.726.191-1.493.309-1.874,1.093a17.665,17.665,0,0,0-.94,1.948,29.621,29.621,0,0,0-1.23,4.162c-.261,1.409-.23,2.871-.353,4.308-.062.743-.162,1.485-.286,2.22-.092.554.22.61.623.569.189-.019.37-.132.559-.145a24.814,24.814,0,0,1,6.828.656c.776.163.86-.088.867-.665.009-.909,0-1.819,0-2.885M71.244,265.347c.371-.109.743-.214,1.111-.331a29.862,29.862,0,0,0,6.817-3.5,2.274,2.274,0,0,0,.419-.468,1.97,1.97,0,0,0-.739-.011c-1.8.731-3.6,1.469-5.385,2.252a39.426,39.426,0,0,1-11.495,2.745c-1.817.209-3.655.251-5.485.325q-4.653.187-9.309.309c-1.741.044-3.484,0-5.226.019a2.47,2.47,0,0,0-.684.222,2.278,2.278,0,0,0,.694.375c.433.062.885-.019,1.323.023,2.021.2,4.038.557,6.061.587a65.463,65.463,0,0,0,11.974-.436c1.581-.267,3.175-.47,4.744-.795,1.712-.356,3.4-.82,5.18-1.315m50.978-219.6c-1.356-.68-2.766-1.273-4.058-2.058a24.41,24.41,0,0,1-6.577-5.586c-.1-.131-.408-.1-.62-.149a1.4,1.4,0,0,0,.1.451,17,17,0,0,0,1.329,2.02,20.492,20.492,0,0,0,5.832,4.364A21.367,21.367,0,0,0,124.483,47c.881.181,1.75.425,2.629.617,1.361.3,2.756.481,4.08.893a24.507,24.507,0,0,1,3.005,1.4,5.559,5.559,0,0,0,.615.208,2.055,2.055,0,0,0,.127-.535c-.038-1.071-.124-2.141-.138-3.212-.008-.6.112-1.2.139-1.807.021-.455-.139-.659-.648-.439-1.125.485-2.269.925-3.4,1.386a12.489,12.489,0,0,1-8.667.236M58.753,67.994c.1-1.388.23-2.775.3-4.164.031-.6-.289-.845-.883-.6-.865.362-1.745.693-2.585,1.107-.434.214-.758.573-.437,1.155a1.069,1.069,0,0,1,.1.683c-.371,1.733-1.811,2.7-2.892,3.91-.656.735-1.484,1.314-2.2,2-.15.144-.143.453-.208.686a2.916,2.916,0,0,0,.733-.029,9.425,9.425,0,0,0,.922-.409c1.953-.813,3.9-1.653,5.867-2.418,1.263-.49,1.282-.44,1.282-1.923m1.483,53.788c1.074.416,2.145.841,3.224,1.244a7.9,7.9,0,0,0,.914.226,4.776,4.776,0,0,0-.65-.837c-1.425-1.18-2.921-2.278-4.3-3.512a2.681,2.681,0,0,1-1.1-2.618c.169-.639-.25-.763-.507-.878a20.927,20.927,0,0,0-2.19-.729c-.688-.22-1.021-.033-.93.569.241,1.609.49,3.218.8,4.814a1.081,1.081,0,0,0,.676.61c1.291.4,2.6.747,4.06,1.111M285.929,97.66a2.1,2.1,0,0,0-.273.278q-1.635,2.4-3.257,4.816c-.506.751-1.009,1.5-1.479,2.278-.086.141,0,.384,0,.58a1.443,1.443,0,0,0,.481-.161,11.448,11.448,0,0,0,1.421-1.271c.9-1.043,1.755-2.125,2.6-3.211a33.12,33.12,0,0,0,5.616-10.939c.059-.2-.1-.455-.155-.685-.2.123-.47.2-.571.378-.4.688-.718,1.421-1.112,2.112-1.079,1.9-2.181,3.78-3.274,5.825M91.854,71.741a2.9,2.9,0,0,0,.228.685q2.551,3.982,5.136,7.942a5.556,5.556,0,0,0,.809.814,4.8,4.8,0,0,0-.311-1.214c-.831-1.482-1.782-2.9-2.567-4.4-1.1-2.113-2.154-4.257-3.122-6.434-.957-2.151-1.795-4.356-2.665-6.546-.293-.738-.518-1.5-.793-2.248a1.613,1.613,0,0,0-.3-.382,1.2,1.2,0,0,0-.155.427,6.3,6.3,0,0,0,.16,1.493,61.243,61.243,0,0,0,3.578,9.868M200.289,262.927a2.72,2.72,0,0,0,.575.306c1.644.429,3.276.942,4.946,1.232,2.35.409,4.729.656,7.1.946.178.022.381-.161.573-.25-.159-.12-.308-.318-.481-.347-.837-.134-1.692-.162-2.518-.339-1.761-.375-3.5-.84-5.26-1.232a44.462,44.462,0,0,1-9.694-3.343,3.383,3.383,0,0,0-.938-.158c.215.228.392.534.654.673,1.619.859,3.257,1.678,5.045,2.511M145.876,59.094c-.613.026-1.227.035-1.837.089a1.6,1.6,0,0,0-.5.246c.157.122.3.319.474.355.891.183,1.8.282,2.685.49a6.028,6.028,0,0,0,4.445-.826,11.133,11.133,0,0,0,3.437-3.135,2.106,2.106,0,0,0,.209-.646,3,3,0,0,0-.693.22c-.626.382-1.2.866-1.848,1.191a16.357,16.357,0,0,1-6.368,2.015M61.485,74.005a3.7,3.7,0,0,0,2.159,1.888,12.932,12.932,0,0,0,4.719-.2c.037,0,.105-.31.053-.358a1.709,1.709,0,0,0-.613-.387,17.656,17.656,0,0,1-1.758-.467c-1.395-.59-2.756-1.259-4.14-1.875-.161-.072-.469-.091-.55,0a.934.934,0,0,0-.155.625,2.19,2.19,0,0,0,.285.768m149.733,16.55a5.993,5.993,0,0,0,.871.149c.763.021,1.53.05,2.29,0a13.362,13.362,0,0,0,4.693-1.095c.2-.091.334-.325.5-.492a2.826,2.826,0,0,0-.757-.055c-.812.161-1.607.42-2.423.543a19.083,19.083,0,0,1-2.429.164,15.279,15.279,0,0,1-3.371-.044,11.852,11.852,0,0,1-5.054-2.486c-.162-.132-.456-.1-.689-.149.092.218.123.517.287.64a15.241,15.241,0,0,0,6.083,2.826M39.627,30.6c-.48.22-.974.415-1.431.676a.585.585,0,0,0-.163.511c.019.1.274.175.434.212.264.062.582.008.8.136.758.442,1.483.939,2.219,1.418.518.336,1.166.166,1.167-.36a12.382,12.382,0,0,0-.214-2.558.8.8,0,0,0-1.205-.561c-.492.193-1.018.3-1.606.526M51.1,125.3c-1.447.639-2.75,1.623-4.389,1.811-.16.018-.3.25-.442.383a1.681,1.681,0,0,0,.529.216c.751.024,1.507.053,2.256,0,2.579-.175,3.249-.772,4.031-3a1.591,1.591,0,0,0-.027-.574,2.062,2.062,0,0,0-.626.163c-.435.282-.838.613-1.331,1M71.01,80.563c-.741-.156-1.478-.339-2.225-.446a.632.632,0,0,0-.485.387,13.32,13.32,0,0,0-.149,2.269,1,1,0,0,0,.565.715c.167.062.575-.209.712-.432a3.685,3.685,0,0,1,3.029-1.719,1.193,1.193,0,0,0,.349-.159c-.091-.114-.162-.3-.276-.329a13.21,13.21,0,0,0-1.52-.287M269.222,72.99c.2.968.514,1.11,1.283.593.425-.285.852-.566,1.294-.824a7.03,7.03,0,0,0,2.924-2.629,2.678,2.678,0,0,0,.156-.693c-.265.033-.589-.02-.789.113-.8.532-1.547,1.144-2.344,1.684-.824.559-1.683,1.069-2.526,1.757m-53.71,20.141-.534.715a4.466,4.466,0,0,0,.949.133c1.073-.076,2.147-.175,3.213-.313.389-.05.659-.237.536-.772a5.3,5.3,0,0,1,.075-1.2c0-.117-.164-.347-.219-.337a4.9,4.9,0,0,0-1.191.305c-.934.43-2.189.237-2.829,1.473m41.454-.39c.147-.563.3-1.124.432-1.689.02-.082-.034-.182-.055-.274a.8.8,0,0,0-.217.091,1.226,1.226,0,0,0-.328.33c-.551,1.069-1.1,2.139-1.624,3.223-.489,1.017-.935,2.054-1.41,3.078a9.3,9.3,0,0,0-.454.9,1.471,1.471,0,0,0,.064.586,1.767,1.767,0,0,0,.478-.337c.425-.6.823-1.214,1.218-1.831a13.6,13.6,0,0,0,1.9-4.078m-22.015,4.684c-.4.294-.785.606-1.2.878-.692.456-1.4.882-2.1,1.333-.078.051-.106.178-.158.27.125.042.281.155.372.115a33.646,33.646,0,0,0,3.669-1.675,9.1,9.1,0,0,0,2.031-1.859,5.116,5.116,0,0,0,.723-1.408c.041-.092-.062-.3-.161-.38-.062-.05-.265.007-.358.079-.155.123-.259.308-.408.443-.776.712-1.558,1.417-2.417,2.2m-55.818-51.6a15.649,15.649,0,0,1,.34-1.733,39.278,39.278,0,0,0,1.049-7.051,2.275,2.275,0,0,0-.237-.818,2.943,2.943,0,0,0-.359.782c-.136,1.019-.164,2.055-.337,3.066-.322,1.885-.723,3.757-1.07,5.638-.025.139.117.309.181.464a.855.855,0,0,0,.432-.349M8.322,155.429c.366.886.72,1.778,1.11,2.654.065.147.282.226.429.336.028-.2.126-.414.071-.582-.253-.776-.57-1.53-.825-2.3-.586-1.783-1.145-3.574-1.729-5.358a1.862,1.862,0,0,0-.312-.443c-.05.173-.177.367-.138.516.45,1.68.925,3.352,1.393,5.183M248.378,46.213c.492.094.756-.177.492-.561a12.255,12.255,0,0,0-1.532-1.7c-.1-.1-.372-.029-.565-.037.033.159.014.356.1.471.459.6.946,1.169,1.5,1.828M147.125,12.879c.544-.544,1.094-1.082,1.628-1.636a2.761,2.761,0,0,0,.307-.488c-.231.034-.526-.01-.682.116a17.281,17.281,0,0,0-1.737,1.588c-.169.181-.136.55-.2.833a7.947,7.947,0,0,0,.68-.413M272.111,39.968a2.236,2.236,0,0,0-.581.452.7.7,0,0,0-.036.608c.055.1.37.1.561.077a1.163,1.163,0,0,0,.528-.217,5.194,5.194,0,0,0,.539-.534,6.937,6.937,0,0,0-1.01-.386M92.868,260.429c.106.055.234.175.314.148a.855.855,0,0,0,.321-.267,16.483,16.483,0,0,0-1.034-1.349c-.069-.078-.3-.013-.461-.013,0,.162-.063.37.014.481a11.424,11.424,0,0,0,.847,1m135.6-197.9c.228.305.468.329.617-.042a10.218,10.218,0,0,0,.462-1.444,1.678,1.678,0,0,0-.109-.621c-.167.143-.412.255-.487.436a11.156,11.156,0,0,0-.482,1.672M118.943,2.652c-.106-.054-.211-.151-.32-.155-.316-.013-.633.01-.949.019.183.2.361.407.55.6a.541.541,0,0,0,.19.1c.215.087.432.17.648.254a3.44,3.44,0,0,0-.119-.817m-9.68,93.212-.477.009a1.441,1.441,0,0,0,.076.206A.6.6,0,0,0,109.262,95.864Z" transform="translate(0 0)"/>
  <path id="Path_12612" data-name="Path 12612" d="M875.629,833.873c.1-1,.2-1.917.314-2.835.094-.764.161-1.537.328-2.286.094-.419.3-.925.9-.8.517.107.5.552.495.977-.013,1.092.044,2.187-.014,3.276-.123,2.3-.284,4.606-.465,6.906-.122,1.551-.286,3.1-.469,4.643-.119,1.006-.307,2-.459,3.006a.5.5,0,0,0,.008.306c.842,1.266.435,2.622.3,3.961-.068.705-.116,1.413-.157,2.12-.109,1.881-.191,3.764-.319,5.644-.133,1.939-.306,3.877-.463,5.814-.155,1.913-.3,3.825-.471,5.736-.2,2.23-.345,4.465-.645,6.683a12.373,12.373,0,0,1-1.23,4.556,1.575,1.575,0,0,1-1.521.993,1.537,1.537,0,0,1-1.348-1.21,8.09,8.09,0,0,1-.126-3.666c.134-1.016.219-2.041.349-3.057.2-1.553.424-3.1.618-4.657.171-1.365.294-2.734.477-4.1.181-1.347.427-2.687.613-4.035.133-.966.2-1.944.322-2.912.195-1.529.423-3.052.618-4.58.171-1.338.3-2.682.476-4.018s.412-2.692.6-4.04c.13-.94.219-1.886.333-2.828.2-1.683.42-3.364.621-5.048.069-.575.118-1.152.156-1.73C875.532,835.782,875.577,834.866,875.629,833.873Z" transform="translate(-734.281 -698.664)"/>
  <path id="Path_12613" data-name="Path 12613" d="M848.29,545.508c1.834-.156,3.589-.329,5.347-.46.651-.049,1.385-.093,1.514.818.094.669-.552,1.27-1.475,1.351-1.515.134-3.041.157-4.55.334-2.449.286-4.966.059-7.337.927-1.106.405-2.189.872-3.3,1.274a1.635,1.635,0,0,1-1.937-.387,1.42,1.42,0,0,0-1.177-.206c-1.445.382-2.859.885-4.3,1.278-.312.085-.878.015-1.011-.189a.731.731,0,0,1,.4-1.028c1.612-.691,3.219-1.412,4.878-1.969a28.063,28.063,0,0,1,3.652-.793,5.666,5.666,0,0,1,1.568-.154,2.611,2.611,0,0,0,2.726-1.827c.626-1.324,1.122-2.709,1.731-4.042.639-1.4,1.337-2.776,2.033-4.151.071-.141.3-.2.454-.3.105.175.291.344.3.525a11.382,11.382,0,0,1-.981,4.427c-.489,1.43-1.131,2.808-1.682,4.218a2.218,2.218,0,0,0-.038.685,4.9,4.9,0,0,0,.588,0C846.535,545.733,847.373,545.618,848.29,545.508Z" transform="translate(-700.385 -452.299)"/>
  <path id="Path_12614" data-name="Path 12614" d="M974.223,771.185c0-1.508-.036-2.938.008-4.366.075-2.4.191-4.8.307-7.2.089-1.829.211-3.656.307-5.485.111-2.114.186-4.23.342-6.34.021-.284.427-.54.655-.809.241.282.679.556.69.846q.1,2.687.02,5.379c-.046,1.57-.19,3.138-.3,4.705-.15,2.093-.3,4.187-.472,6.278-.131,1.549-.3,3.095-.466,4.641-.09.842-.182,1.685-.323,2.52a2.925,2.925,0,0,1-.382.765C974.48,771.832,974.351,771.548,974.223,771.185Z" transform="translate(-822.101 -630.354)"/>
  <path id="Path_12615" data-name="Path 12615" d="M1373.267,789.23c-.628-.578-.455-1.107.4-1.4q3.211-1.1,6.426-2.186c1.119-.376,2.275-.662,3.357-1.123a4.116,4.116,0,0,0,1.505-1.19,18.4,18.4,0,0,0,2.37-4.939c.376-.935.859-1.829,1.316-2.73a.875.875,0,0,1,.439-.426,1.105,1.105,0,0,1,.621.094,1.053,1.053,0,0,1-.048.418c-.331,1.163-.62,2.34-1.016,3.48-.442,1.269-.97,2.51-1.483,3.752-.269.645-.2.8.539.784,2.111-.041,4.225-.194,6.331-.122,1.608.055,3.208.382,4.812.6,1.525.2,3.056.391,4.575.638a5.942,5.942,0,0,1,1.344.51c.014.006-.083.394-.126.394-1.622-.018-3.243-.048-4.864-.108-.651-.024-1.3-.138-1.949-.183-.966-.066-1.933-.1-2.9-.161a13.471,13.471,0,0,0-2.351-.132,64.179,64.179,0,0,0-6.976,1.045c-3.485.817-6.911,1.889-10.37,2.813A11.261,11.261,0,0,1,1373.267,789.23Z" transform="translate(-1158.536 -654.176)"/>
  <path id="Path_12616" data-name="Path 12616" d="M1439.458,961.82c0-.406-.059-.879.44-.748a1.2,1.2,0,0,1,.775.742,28.176,28.176,0,0,1,.19,2.817c.053.993.155,1.986.147,2.978-.025,2.815-.07,5.629-.156,8.442-.053,1.7-.126,3.408-.32,5.1-.3,2.639-.731,5.263-1.07,7.9-.242,1.888-.429,3.78-.629,5.672-.115,1.1-.193,2.2-.328,3.3-.028.22-.234.418-.359.628-.136-.192-.378-.376-.392-.578-.131-1.9-.351-3.818-.3-5.721.064-2.181.373-4.356.595-6.531.194-1.919.442-3.831.612-5.752.147-1.644.234-3.293.317-4.942.075-1.538.114-3.079.159-4.618.058-2.006.1-4.014.161-6.021C1439.333,963.623,1439.405,962.761,1439.458,961.82Z" transform="translate(-1213.017 -810.997)"/>
  <path id="Path_12617" data-name="Path 12617" d="M1496.025,950.684c.039-1.313.01-2.587.046-3.861.084-3,.187-6,.329-9,.014-.289.356-.563.547-.843.2.2.518.383.568.618a17.09,17.09,0,0,1,.406,2.716c.065,1.4.036,2.808.012,4.211-.036,2.137-.119,4.273-.147,6.41q-.038,3.094,0,6.189c.022,1.8.089,3.6.152,5.394.1,2.818.206,5.635.309,8.452a1,1,0,0,1-.012.462.689.689,0,0,1-.394.342c-.1.019-.337-.165-.359-.286-.181-1.023-.35-2.05-.478-3.081-.226-1.836-.439-3.674-.623-5.513-.092-.937-.125-1.88-.159-2.821q-.1-2.581-.158-5.162C1496.03,953.52,1496.011,952.122,1496.025,950.684Z" transform="translate(-1262.44 -790.689)"/>
  <path id="Path_12618" data-name="Path 12618" d="M1478.335,874.967c-1.475.273-2.91.524-4.351.723-.211.029-.456-.187-.684-.29.128-.259.2-.677.392-.751a26.025,26.025,0,0,1,3.438-1.105,40.764,40.764,0,0,1,4.743-.777,26.107,26.107,0,0,1,3.74,0c.271.012.529.333.793.512a3.653,3.653,0,0,1-.83.389c-1.838.346-3.68.662-5.521.984C1479.5,874.75,1478.933,874.836,1478.335,874.967Z" transform="translate(-1243.267 -736.439)"/>
  <path id="Path_12619" data-name="Path 12619" d="M255.745,1166.965c.825-.215,1.1.316,1.2.907a30.5,30.5,0,0,1,.525,4.486c.023,1.736.388,3.468.577,5.2q.2,1.8.312,3.616c.123,1.906.215,3.814.317,5.722.106,1.984.251,3.969.3,5.957.087,3.307.171,6.615.148,9.922-.019,2.767-.166,5.533-.326,8.3-.019.337-.45.9-.725.921-.493.039-.5-.5-.5-.926.01-2.081.02-4.162,0-6.242-.042-4.556-.075-9.112-.163-13.668q-.076-3.956-.316-7.907c-.144-2.338-.385-4.668-.617-7-.18-1.816-.4-3.627-.625-5.438-.124-.979-.339-1.949-.442-2.929A2.229,2.229,0,0,1,255.745,1166.965Z" transform="translate(-215.533 -984.721)"/>
  <path id="Path_12620" data-name="Path 12620" d="M182.114,1035.433c-1.876-.236-3.713-.511-5.55-.788-.9-.136-1.8-.317-2.714-.412a36.735,36.735,0,0,0-4.006-.3c-1.622.008-3.244.186-4.866.289-.837.053-1.679.066-2.51.166-1.428.173-2.847.417-4.274.6a19.493,19.493,0,0,1-2.194.156,2.039,2.039,0,0,1-.7-.276c.148-.267.231-.67.455-.776a19.433,19.433,0,0,1,2.74-1.1,21.139,21.139,0,0,1,7.036-1.112c1.824.079,3.655.05,5.475.186a27.56,27.56,0,0,1,2.788.593c1.313.237,2.654.347,3.95.653,1.359.32,2.68.806,4.016,1.224C182.2,1034.671,182.366,1034.949,182.114,1035.433Z" transform="translate(-131.051 -870.754)"/>
  <path id="Path_12621" data-name="Path 12621" d="M264.543,946.884c.352,1.1,1.3,1,2.066,1.072a20.51,20.51,0,0,1,8.273,2.465c.623.354.9.745.612,1.5-.2.526-.439.528-.842.312a19.147,19.147,0,0,0-2.441-1.263,16.455,16.455,0,0,0-3.509-.932c-2.133-.261-4.29-.331-6.435-.5a27.251,27.251,0,0,1-2.987-.337c-.36-.07-.656-.472-.981-.72.387-.272.752-.729,1.165-.776a22.007,22.007,0,0,1,3.039-.03c.567.016.68-.141.492-.7a29.4,29.4,0,0,1-1.577-7.309c-.029-.4-.132-.789-.138-1.184,0-.165.16-.332.248-.5.123.132.307.245.358.4.38,1.145.741,2.3,1.094,3.449.424,1.386.831,2.777,1.254,4.163C264.318,946.273,264.439,946.537,264.543,946.884Z" transform="translate(-217.969 -791.532)"/>
  <path id="Path_12622" data-name="Path 12622" d="M290.594,1103.79a18.223,18.223,0,0,1-.121-2.2c.013-.217.438-.409.675-.614.18.236.472.448.521.709.346,1.814.652,3.638.952,5.462.273,1.66.5,3.326.789,4.984s.634,3.33.92,5c.238,1.391.42,2.792.639,4.188.084.532.237,1.055.3,1.589a2.773,2.773,0,0,1-.146.79c-.207-.176-.514-.316-.6-.54a10.847,10.847,0,0,1-.483-1.75c-.533-2.643-1.042-5.292-1.568-7.938q-.93-4.686-1.871-9.371A2.021,2.021,0,0,1,290.594,1103.79Z" transform="translate(-245.112 -929.079)"/>
</svg>
