<svg xmlns="http://www.w3.org/2000/svg" width="141.688" height="35.734" viewBox="0 0 141.688 35.734">
  <g id="socket_logo" transform="translate(5328.748 -274.213)">
    <g id="Group_224" data-name="Group 224" transform="translate(-5328.748 274.213)">
      <g id="Group_221" data-name="Group 221" transform="translate(45.605 4.274)">
        <path id="Path_115" data-name="Path 115" d="M-5242.568,282.231a4.02,4.02,0,0,0-2.4-.841h-3.842a3.541,3.541,0,0,0-2.546.937,2.834,2.834,0,0,0-.792,1.993v7.3a1.854,1.854,0,0,0,1.176,1.753,4.415,4.415,0,0,0,1.849.432h3.53a2.919,2.919,0,0,1,1.272.168.561.561,0,0,1,.169.481v6.628a1.852,1.852,0,0,1-.265,1.057c-.168.24-.6.288-.913.288h-2.93c-.889,0-1.08-.216-1.1-.24a1.724,1.724,0,0,1-.241-1.081v-4.635h-2.569v5.451a2.321,2.321,0,0,0,1.009,1.849,4.012,4.012,0,0,0,2.4.84h3.842a3.538,3.538,0,0,0,2.545-.936,2.834,2.834,0,0,0,.793-1.993v-7.925a1.418,1.418,0,0,0-.408-1.009,4.365,4.365,0,0,0-.721-.6,3.687,3.687,0,0,0-.889-.384,3.062,3.062,0,0,0-.816-.144h-4.13a6.7,6.7,0,0,1-.913-.072,1.486,1.486,0,0,1-.12-.649v-6a1.95,1.95,0,0,1,.24-1.081c.12-.168.456-.264.936-.264h2.93c.84,0,1.057.192,1.1.264a1.889,1.889,0,0,1,.24,1.1v4.587h2.569V284.08A2.323,2.323,0,0,0-5242.568,282.231Z" transform="translate(5252.175 -281.39)" fill="#010101"/>
        <path id="Path_116" data-name="Path 116" d="M-5213.964,282.231a4.017,4.017,0,0,0-2.4-.841h-3.818a3.278,3.278,0,0,0-2.57.913,2.888,2.888,0,0,0-.792,2.017v17.363a2.953,2.953,0,0,0,.745,1.945,3.376,3.376,0,0,0,2.545.984h4.2a3.261,3.261,0,0,0,2.3-.889,2.654,2.654,0,0,0,.816-1.849V284.1A2.423,2.423,0,0,0-5213.964,282.231Zm-1.561,2.69v16.114a2.09,2.09,0,0,1-.241,1.1c-.047.072-.264.264-1.1.264h-2.33c-1.177,0-1.465-.241-1.513-.288a1.587,1.587,0,0,1-.288-1.057V284.9a1.4,1.4,0,0,1,.336-.985,1.127,1.127,0,0,1,.841-.36h2.93c.841,0,1.056.192,1.1.264A1.864,1.864,0,0,1-5215.524,284.921Z" transform="translate(5240.597 -281.39)" fill="#010101"/>
        <path id="Path_117" data-name="Path 117" d="M-5185.416,282.231a4.017,4.017,0,0,0-2.4-.841h-3.818a3.362,3.362,0,0,0-2.474.889,2.788,2.788,0,0,0-.889,2.042v17.363a2.955,2.955,0,0,0,.744,1.945,3.338,3.338,0,0,0,2.546.984h4.179a3.369,3.369,0,0,0,2.33-.889,2.656,2.656,0,0,0,.817-1.849v-5.4h-2.57v4.587a2.084,2.084,0,0,1-.24,1.1c-.048.072-.264.264-1.1.264h-2.233c-1.129,0-1.465-.216-1.561-.312a1.437,1.437,0,0,1-.312-1.033V284.9a1.4,1.4,0,0,1,.336-.985,1.126,1.126,0,0,1,.84-.36h2.93c.889,0,1.081.216,1.1.241a1.724,1.724,0,0,1,.24,1.08v4.611h2.57v-5.4A2.421,2.421,0,0,0-5185.416,282.231Z" transform="translate(5229.051 -281.39)" fill="#010101"/>
        <path id="Path_118" data-name="Path 118" d="M-5155.362,281.39h-2.833l-5.667,9.942V281.39h-2.546v23.2h2.546v-8.621l1.393-2.305,4.491,10.927h2.689l-5.5-13.544Z" transform="translate(5217.489 -281.39)" fill="#010101"/>
        <path id="Path_119" data-name="Path 119" d="M-5137.417,304.589h10.639V302.4h-8.069v-8.669h7.156v-2.161h-7.156v-8.021h8.069V281.39h-10.639Z" transform="translate(5205.763 -281.39)" fill="#010101"/>
        <path id="Path_120" data-name="Path 120" d="M-5108.788,281.39v2.161h4.035v21.037h2.617V283.552h4.034V281.39Z" transform="translate(5194.185 -281.39)" fill="#010101"/>
      </g>
      <g id="Group_223" data-name="Group 223">
        <path id="Path_121" data-name="Path 121" d="M-5308.288,290.552a2.194,2.194,0,0,0-2.186-2.186,2.194,2.194,0,0,0-2.186,2.186,2.193,2.193,0,0,0,2.186,2.185A2.194,2.194,0,0,0-5308.288,290.552Z" transform="translate(5322.241 -279.937)" fill="#010101"/>
        <path id="Path_122" data-name="Path 122" d="M-5287.441,290.552a2.193,2.193,0,0,0-2.186-2.186,2.193,2.193,0,0,0-2.185,2.186,2.193,2.193,0,0,0,2.185,2.185A2.193,2.193,0,0,0-5287.441,290.552Z" transform="translate(5313.81 -279.937)" fill="#010101"/>
        <path id="Path_123" data-name="Path 123" d="M-5293.47,307.186h-2.546v-1.993h2.546a.81.81,0,0,0,.816-.817.81.81,0,0,0-.816-.817h-2.546v-.288a.81.81,0,0,0-.816-.817c-2.041,0-3.506.913-4.034,2.426a.716.716,0,0,0-.24-.048h-24.9V276.951h30.09v19.212a1.384,1.384,0,0,0,1.369,1.369,1.368,1.368,0,0,0,1.369-1.369V275.582a1.383,1.383,0,0,0-1.369-1.369h-32.829a1.369,1.369,0,0,0-1.369,1.369V306.2a1.368,1.368,0,0,0,1.369,1.369h26.272a.689.689,0,0,0,.216-.048,4.005,4.005,0,0,0,4.059,2.426.81.81,0,0,0,.816-.817v-.288h2.546a.81.81,0,0,0,.816-.817A.83.83,0,0,0-5293.47,307.186Zm-4.179,1.057a1.974,1.974,0,0,1-1.825-2.041,1.959,1.959,0,0,1,1.825-2.042Z" transform="translate(5328.748 -274.213)" fill="#010101"/>
        <g id="Group_222" data-name="Group 222" transform="translate(12.608 19.588)">
          <path id="Path_124" data-name="Path 124" d="M-5301.814,310.425a32.5,32.5,0,0,1-4.539-.36,1.48,1.48,0,0,1-1.2-1.729,1.468,1.468,0,0,1,1.729-1.2,22.428,22.428,0,0,0,7.325,0,1.491,1.491,0,0,1,1.776,1.129,1.492,1.492,0,0,1-1.129,1.777A18.8,18.8,0,0,1-5301.814,310.425Z" transform="translate(5307.578 -307.102)" fill="#010101"/>
        </g>
      </g>
    </g>
  </g>
</svg>
