<svg xmlns="http://www.w3.org/2000/svg" width="133.643" height="30.007" viewBox="0 0 133.643 30.007">
  <g id="space_logo" transform="translate(0 0.001)">
    <g id="Group_3181" data-name="Group 3181" transform="translate(0 -0.001)">
      <path id="chat_1" data-name="chat 1" d="M11.654,2.214C11.275,1.992,9.017.695,8.418.346A2.563,2.563,0,0,0,5.825.357C5.235.707,3,1.99,2.622,2.207A2.56,2.56,0,0,0,1.339,4.427V8.157a2.559,2.559,0,0,0,1.257,2.2c.382.226,2.649,1.527,3.248,1.876a2.564,2.564,0,0,0,2.577,0c.6-.349,2.839-1.641,3.214-1.856a2.561,2.561,0,0,0,1.289-2.223V4.425A2.559,2.559,0,0,0,11.654,2.214ZM10.059,7.233a1.293,1.293,0,0,1-.651,1.123c-.19.108-1.321.761-1.624.938a1.3,1.3,0,0,1-1.3,0c-.3-.177-1.448-.833-1.641-.948a1.293,1.293,0,0,1-.635-1.114V5.348a1.293,1.293,0,0,1,.648-1.121c.19-.11,1.32-.758,1.618-.935a1.3,1.3,0,0,1,1.311-.006c.3.177,1.443.831,1.635.944a1.293,1.293,0,0,1,.641,1.117c0,.372,0,1.513,0,1.886Z" transform="translate(-0.864 0.001)" fill="#ff8000"/>
      <path id="download" d="M12.585,49.163V61.748H0V49.163ZM2.8,51.96v6.991H9.788V51.96Z" transform="translate(0 -31.741)" fill="#ffd501"/>
      <path id="download_2_2" data-name="download 2 2" d="M55.54,49.162a6.292,6.292,0,1,1-6.293,6.293A6.292,6.292,0,0,1,55.54,49.162Zm0,2.516a3.775,3.775,0,1,0,3.775,3.775h0a3.775,3.775,0,0,0-3.775-3.775h0Z" transform="translate(-31.795 -31.74)" fill="#1271d8"/>
      <path id="download_2_3" data-name="download 2 3" d="M60.534,12.508H46.154L53.344,0Zm-10.05-2.5h5.721l-2.86-4.976Z" transform="translate(-29.798 0.001)" fill="#00d478"/>
    </g>
    <path id="Path_3140" data-name="Path 3140" d="M136.912,15.627a1.132,1.132,0,0,1-.39.472.976.976,0,0,1-.526.137A1.339,1.339,0,0,1,135.31,16q-.381-.236-.9-.526a7.357,7.357,0,0,0-1.212-.526,5.082,5.082,0,0,0-1.638-.236,4.817,4.817,0,0,0-1.486.206,3.149,3.149,0,0,0-1.067.572,2.283,2.283,0,0,0-.648.876,2.874,2.874,0,0,0-.213,1.12,1.949,1.949,0,0,0,.435,1.3,3.624,3.624,0,0,0,1.151.884,10.662,10.662,0,0,0,1.63.655q.914.29,1.866.617a17.962,17.962,0,0,1,1.866.762,6.465,6.465,0,0,1,1.63,1.1,4.971,4.971,0,0,1,1.151,1.623,5.637,5.637,0,0,1,.434,2.331,7.6,7.6,0,0,1-.51,2.8,6.449,6.449,0,0,1-1.493,2.269,7.032,7.032,0,0,1-2.4,1.524,8.833,8.833,0,0,1-3.244.556,10.461,10.461,0,0,1-2.072-.206,10.909,10.909,0,0,1-1.958-.587,10.2,10.2,0,0,1-1.752-.914A8.632,8.632,0,0,1,123.427,31l1.188-1.966a1.518,1.518,0,0,1,.4-.358.986.986,0,0,1,.526-.145,1.453,1.453,0,0,1,.823.313q.442.313,1.044.694a8.016,8.016,0,0,0,1.417.694,5.473,5.473,0,0,0,1.958.313,4.018,4.018,0,0,0,2.712-.831,2.983,2.983,0,0,0,.96-2.385,2.215,2.215,0,0,0-.434-1.417,3.509,3.509,0,0,0-1.151-.921,8.593,8.593,0,0,0-1.63-.633q-.914-.259-1.859-.564a16.034,16.034,0,0,1-1.859-.731,6.022,6.022,0,0,1-1.63-1.112,5.065,5.065,0,0,1-1.151-1.714,6.532,6.532,0,0,1-.434-2.537,6.068,6.068,0,0,1,1.882-4.374,6.917,6.917,0,0,1,2.263-1.417,8.239,8.239,0,0,1,3.063-.533,10.278,10.278,0,0,1,3.6.61,8.12,8.12,0,0,1,2.8,1.707ZM145.69,25.9v7.756h-4.1V11.619h7.179a12.574,12.574,0,0,1,3.825.518,7.36,7.36,0,0,1,2.667,1.448,5.668,5.668,0,0,1,1.554,2.225,8.3,8.3,0,0,1-.029,5.768,6.084,6.084,0,0,1-1.6,2.293,7.443,7.443,0,0,1-2.667,1.493,11.88,11.88,0,0,1-3.749.533Zm0-3.2h3.078a6.181,6.181,0,0,0,1.966-.283,3.648,3.648,0,0,0,1.387-.808,3.31,3.31,0,0,0,.823-1.277,4.9,4.9,0,0,0,.274-1.684,4.447,4.447,0,0,0-.274-1.6,3.161,3.161,0,0,0-.823-1.219,3.662,3.662,0,0,0-1.388-.771,6.5,6.5,0,0,0-1.966-.266H145.69Zm31.817,10.956h-3.17a1.385,1.385,0,0,1-.876-.266,1.518,1.518,0,0,1-.5-.663l-1.644-4.5h-9.129l-1.644,4.5a1.44,1.44,0,0,1-.48.64,1.348,1.348,0,0,1-.878.29h-3.185l8.655-22.034h4.19Zm-14.263-8.32h7.025L167.587,18q-.183-.487-.4-1.151t-.433-1.44q-.213.777-.419,1.448t-.4,1.173Zm30.9,3.124a.77.77,0,0,1,.579.259l1.616,1.752a8.872,8.872,0,0,1-3.3,2.545,11.372,11.372,0,0,1-4.7.884,11.113,11.113,0,0,1-4.411-.838,9.724,9.724,0,0,1-3.345-2.331,10.21,10.21,0,0,1-2.126-3.566,13.387,13.387,0,0,1-.739-4.526,12.184,12.184,0,0,1,.823-4.548,10.271,10.271,0,0,1,5.89-5.882,12.281,12.281,0,0,1,4.594-.83,10.85,10.85,0,0,1,4.288.785,10.022,10.022,0,0,1,3.147,2.08l-1.371,1.9a1.238,1.238,0,0,1-.313.319.886.886,0,0,1-.526.137,1.2,1.2,0,0,1-.716-.274,8.886,8.886,0,0,0-.93-.594,7.6,7.6,0,0,0-1.425-.594,8.231,8.231,0,0,0-5.044.266,6.35,6.35,0,0,0-2.24,1.547,7.117,7.117,0,0,0-1.463,2.445,9.392,9.392,0,0,0-.526,3.238,9.654,9.654,0,0,0,.526,3.307,7.268,7.268,0,0,0,1.425,2.438,6.083,6.083,0,0,0,2.118,1.516,6.544,6.544,0,0,0,2.622.526,11.419,11.419,0,0,0,1.516-.091,6.428,6.428,0,0,0,1.25-.29,5.548,5.548,0,0,0,1.082-.51,6.749,6.749,0,0,0,1.014-.77,1.443,1.443,0,0,1,.319-.221.806.806,0,0,1,.366-.082ZM213.33,11.619v3.26h-9.766v6.11h7.7v3.154h-7.7v6.233h9.768v3.276h-13.9V11.619Z" transform="translate(-79.688 -7.343)" fill="#0f0f0f"/>
  </g>
</svg>
